<svg width="500" height="146" viewBox="0 0 500 146" fill="none" xmlns="http://www.w3.org/2000/svg">
<path d="M18.7932 142.233H19.8391L20.2007 141.251L33.0655 106.335H93.3265L106.191 141.251L106.553 142.233H107.599H121.77H123.927L123.176 140.21L72.9158 4.93373L72.5526 3.95614H71.5097H54.6933H53.6463L53.2853 4.93892L3.59199 140.216L2.85098 142.233H5H18.7932ZM63.3009 25.0592L87.8718 91.4325H38.3256L62.7072 25.0755C62.8164 24.802 62.9262 24.5158 63.0346 24.2224C63.1182 24.4761 63.1976 24.7253 63.2708 24.9695L63.2844 25.0148L63.3009 25.0592ZM149.079 142.233H150.476L150.575 140.839L151.53 127.329C158.742 138.931 170.763 144.5 184.79 144.5C198.525 144.5 209.578 139.225 217.177 130.349C224.754 121.497 228.803 109.177 228.803 95.1997C228.803 81.1395 224.855 68.6825 217.378 59.7118C209.878 50.7113 198.914 45.3327 185.168 45.3327C171.218 45.3327 159.497 50.7096 152.279 61.4042V3V1.5H150.779H137.742H136.242V3V140.733V142.233H137.742H149.079ZM417.503 47.7888H416.003V49.2888V97.8448C416.003 108.491 413.456 116.458 408.967 121.742C404.51 126.99 397.972 129.786 389.539 129.786C382.522 129.786 376.949 127.924 373.1 123.688C369.225 119.423 366.853 112.488 366.853 101.812V49.0999V47.5999H365.353H352.127H350.627V49.0999V105.969C350.627 117.364 353.621 127.009 359.545 133.828C365.494 140.677 374.248 144.5 385.382 144.5C398.358 144.5 410.148 138.815 416.502 129.867L417.713 140.896L417.859 142.233H419.204H430.54H432.04V140.733V49.2888V47.7888H430.54H417.503ZM478.672 142.233H480.172V140.733V61.747H497H498.5V60.247V49.2888V47.7888H497H480.172V20.3819V18.8819H478.672H465.824H464.324V20.3819V47.7888H447.496H445.996V49.2888V60.247V61.747H447.496H464.324V140.733V142.233H465.824H478.672ZM152.468 94.8219C152.468 84.6031 155.322 75.9036 160.476 69.7863C165.606 63.6977 173.112 60.0466 182.712 60.0466C192.211 60.0466 199.62 63.6931 204.681 69.7789C209.767 75.8956 212.577 84.5974 212.577 94.8219C212.577 105.143 209.766 113.843 204.682 119.934C199.625 125.993 192.217 129.597 182.712 129.597C173.106 129.597 165.601 125.989 160.475 119.926C155.323 113.835 152.468 105.138 152.468 94.8219ZM240.16 95.0108C240.16 123.569 260.439 144.5 288.142 144.5C315.844 144.5 336.123 123.569 336.123 95.0108C336.123 66.2681 315.848 45.3327 288.142 45.3327C260.435 45.3327 240.16 66.2681 240.16 95.0108ZM256.387 94.8219C256.387 84.5627 259.682 75.8704 265.254 69.7597C270.816 63.6594 278.722 60.0466 288.142 60.0466C306.653 60.0466 319.896 74.3623 319.896 94.8219C319.896 105.27 316.554 114.008 310.961 120.118C305.376 126.219 297.469 129.786 288.142 129.786C278.716 129.786 270.812 126.217 265.254 120.12C259.685 114.013 256.387 105.276 256.387 94.8219Z" stroke="#FAFAFA" stroke-opacity="0.2" stroke-width="3"/>
</svg>
