<svg width="140" height="140" viewBox="0 0 140 140" fill="none" xmlns="http://www.w3.org/2000/svg">
<rect x="75.0283" width="8.82774" height="8.82774" rx="4.41387" fill="#D2AD92" fill-opacity="0.2"/>
<rect x="93.7432" width="8.82774" height="8.82774" rx="4.41387" fill="#D2AD92" fill-opacity="0.2"/>
<rect x="75.0283" y="18.7146" width="8.82774" height="8.82774" rx="4.41387" fill="#D2AD92" fill-opacity="0.2"/>
<rect x="93.7432" y="18.7146" width="8.82774" height="8.82774" rx="4.41387" fill="#D2AD92" fill-opacity="0.2"/>
<rect x="112.458" width="8.82774" height="8.82774" rx="4.41387" fill="#D2AD92" fill-opacity="0.2"/>
<rect x="131.173" width="8.82774" height="8.82774" rx="4.41387" fill="#D2AD92" fill-opacity="0.2"/>
<rect x="112.458" y="18.7146" width="8.82774" height="8.82774" rx="4.41387" fill="#D2AD92" fill-opacity="0.2"/>
<rect x="131.173" y="18.7146" width="8.82774" height="8.82774" rx="4.41387" fill="#D2AD92" fill-opacity="0.2"/>
<rect x="75.0283" y="37.4297" width="8.82774" height="8.82774" rx="4.41387" fill="#D2AD92" fill-opacity="0.2"/>
<rect x="93.7432" y="37.4297" width="8.82774" height="8.82774" rx="4.41387" fill="#D2AD92" fill-opacity="0.2"/>
<rect x="75.0283" y="56.1443" width="8.82774" height="8.82774" rx="4.41387" fill="#D2AD92" fill-opacity="0.2"/>
<rect x="93.7432" y="56.1443" width="8.82774" height="8.82774" rx="4.41387" fill="#D2AD92" fill-opacity="0.2"/>
<rect x="112.458" y="37.4297" width="8.82774" height="8.82774" rx="4.41387" fill="#D2AD92" fill-opacity="0.2"/>
<rect x="131.173" y="37.4297" width="8.82774" height="8.82774" rx="4.41387" fill="#D2AD92" fill-opacity="0.2"/>
<rect x="112.458" y="56.1443" width="8.82774" height="8.82774" rx="4.41387" fill="#D2AD92" fill-opacity="0.2"/>
<rect x="131.173" y="56.1443" width="8.82774" height="8.82774" rx="4.41387" fill="#D2AD92" fill-opacity="0.2"/>
<rect width="8.82774" height="8.82774" rx="4.41387" fill="#D2AD92" fill-opacity="0.2"/>
<rect x="18.7148" width="8.82774" height="8.82774" rx="4.41387" fill="#D2AD92" fill-opacity="0.2"/>
<rect y="18.7146" width="8.82774" height="8.82774" rx="4.41387" fill="#D2AD92" fill-opacity="0.2"/>
<rect x="18.7148" y="18.7146" width="8.82774" height="8.82774" rx="4.41387" fill="#D2AD92" fill-opacity="0.2"/>
<rect x="37.4297" width="8.82774" height="8.82774" rx="4.41387" fill="#D2AD92" fill-opacity="0.2"/>
<rect x="56.1445" width="8.82774" height="8.82774" rx="4.41387" fill="#D2AD92" fill-opacity="0.2"/>
<rect x="37.4297" y="18.7146" width="8.82774" height="8.82774" rx="4.41387" fill="#D2AD92" fill-opacity="0.2"/>
<rect x="56.1445" y="18.7146" width="8.82774" height="8.82774" rx="4.41387" fill="#D2AD92" fill-opacity="0.2"/>
<rect y="37.4297" width="8.82774" height="8.82774" rx="4.41387" fill="#D2AD92" fill-opacity="0.2"/>
<rect x="18.7148" y="37.4297" width="8.82774" height="8.82774" rx="4.41387" fill="#D2AD92" fill-opacity="0.2"/>
<rect y="56.1443" width="8.82774" height="8.82774" rx="4.41387" fill="#D2AD92" fill-opacity="0.2"/>
<rect x="18.7148" y="56.1443" width="8.82774" height="8.82774" rx="4.41387" fill="#D2AD92" fill-opacity="0.2"/>
<rect x="37.4297" y="37.4297" width="8.82774" height="8.82774" rx="4.41387" fill="#D2AD92" fill-opacity="0.2"/>
<rect x="56.1445" y="37.4297" width="8.82774" height="8.82774" rx="4.41387" fill="#D2AD92" fill-opacity="0.2"/>
<rect x="37.4297" y="56.1443" width="8.82774" height="8.82774" rx="4.41387" fill="#D2AD92" fill-opacity="0.2"/>
<rect x="56.1445" y="56.1443" width="8.82774" height="8.82774" rx="4.41387" fill="#D2AD92" fill-opacity="0.2"/>
<rect x="75.0283" y="75.0276" width="8.82774" height="8.82774" rx="4.41387" fill="#D2AD92" fill-opacity="0.2"/>
<rect x="93.7432" y="75.0276" width="8.82774" height="8.82774" rx="4.41387" fill="#D2AD92" fill-opacity="0.2"/>
<rect x="75.0283" y="93.7424" width="8.82774" height="8.82774" rx="4.41387" fill="#D2AD92" fill-opacity="0.2"/>
<rect x="93.7432" y="93.7424" width="8.82774" height="8.82774" rx="4.41387" fill="#D2AD92" fill-opacity="0.2"/>
<rect x="112.458" y="75.0276" width="8.82774" height="8.82774" rx="4.41387" fill="#D2AD92" fill-opacity="0.2"/>
<rect x="131.173" y="75.0276" width="8.82774" height="8.82774" rx="4.41387" fill="#D2AD92" fill-opacity="0.2"/>
<rect x="112.458" y="93.7424" width="8.82774" height="8.82774" rx="4.41387" fill="#D2AD92" fill-opacity="0.2"/>
<rect x="131.173" y="93.7424" width="8.82774" height="8.82774" rx="4.41387" fill="#D2AD92" fill-opacity="0.2"/>
<rect x="75.0283" y="112.457" width="8.82774" height="8.82774" rx="4.41387" fill="#D2AD92" fill-opacity="0.2"/>
<rect x="93.7432" y="112.457" width="8.82774" height="8.82774" rx="4.41387" fill="#D2AD92" fill-opacity="0.2"/>
<rect x="75.0283" y="131.172" width="8.82774" height="8.82774" rx="4.41387" fill="#D2AD92" fill-opacity="0.2"/>
<rect x="93.7432" y="131.172" width="8.82774" height="8.82774" rx="4.41387" fill="#D2AD92" fill-opacity="0.2"/>
<rect x="112.458" y="112.457" width="8.82774" height="8.82774" rx="4.41387" fill="#D2AD92" fill-opacity="0.2"/>
<rect x="131.173" y="112.457" width="8.82774" height="8.82774" rx="4.41387" fill="#D2AD92" fill-opacity="0.2"/>
<rect x="112.458" y="131.172" width="8.82774" height="8.82774" rx="4.41387" fill="#D2AD92" fill-opacity="0.2"/>
<rect x="131.173" y="131.172" width="8.82774" height="8.82774" rx="4.41387" fill="#D2AD92" fill-opacity="0.2"/>
<rect y="75.0273" width="8.82774" height="8.82774" rx="4.41387" fill="#D2AD92" fill-opacity="0.2"/>
<rect x="18.7148" y="75.0273" width="8.82774" height="8.82774" rx="4.41387" fill="#D2AD92" fill-opacity="0.2"/>
<rect y="93.7422" width="8.82774" height="8.82774" rx="4.41387" fill="#D2AD92" fill-opacity="0.2"/>
<rect x="18.7148" y="93.7422" width="8.82774" height="8.82774" rx="4.41387" fill="#D2AD92" fill-opacity="0.2"/>
<rect x="37.4297" y="75.0273" width="8.82774" height="8.82774" rx="4.41387" fill="#D2AD92" fill-opacity="0.2"/>
<rect x="56.1445" y="75.0273" width="8.82774" height="8.82774" rx="4.41387" fill="#D2AD92" fill-opacity="0.2"/>
<rect x="37.4297" y="93.7422" width="8.82774" height="8.82774" rx="4.41387" fill="#D2AD92" fill-opacity="0.2"/>
<rect x="56.1445" y="93.7422" width="8.82774" height="8.82774" rx="4.41387" fill="#D2AD92" fill-opacity="0.2"/>
<rect y="112.457" width="8.82774" height="8.82774" rx="4.41387" fill="#D2AD92" fill-opacity="0.2"/>
<rect x="18.7148" y="112.457" width="8.82774" height="8.82774" rx="4.41387" fill="#D2AD92" fill-opacity="0.2"/>
<rect y="131.172" width="8.82774" height="8.82774" rx="4.41387" fill="#D2AD92" fill-opacity="0.2"/>
<rect x="18.7148" y="131.172" width="8.82774" height="8.82774" rx="4.41387" fill="#D2AD92" fill-opacity="0.2"/>
<rect x="37.4297" y="112.457" width="8.82774" height="8.82774" rx="4.41387" fill="#D2AD92" fill-opacity="0.2"/>
<rect x="56.1445" y="112.457" width="8.82774" height="8.82774" rx="4.41387" fill="#D2AD92" fill-opacity="0.2"/>
<rect x="37.4297" y="131.172" width="8.82774" height="8.82774" rx="4.41387" fill="#D2AD92" fill-opacity="0.2"/>
<rect x="56.1445" y="131.172" width="8.82774" height="8.82774" rx="4.41387" fill="#D2AD92" fill-opacity="0.2"/>
</svg>
