<svg width="441" height="76" viewBox="0 0 441 76" fill="none" xmlns="http://www.w3.org/2000/svg">
<path d="M105.705 46.9161L110.216 34.6883H131.485L135.996 46.9161H140.83L123.686 0.836639H117.95L101 46.9161H105.705ZM120.206 7.33667C120.464 6.69311 120.722 5.85647 120.786 5.47032C120.85 5.92082 121.173 6.69311 121.366 7.33667L130.002 30.6338H111.634L120.206 7.33667Z" fill="#FAFAFA"/>
<path d="M150.918 46.9161V0H146.471V46.9161H150.918Z" fill="#FAFAFA"/>
<path d="M165.016 46.9161V0H160.569V46.9161H165.016Z" fill="#FAFAFA"/>
<path d="M190.544 12.807C190.544 19.114 194.347 23.2328 201.565 24.9704L209.364 26.9011C214.326 28.0596 216.646 30.7625 216.646 34.8814C216.646 40.1586 212.328 43.4408 205.561 43.4408C199.245 43.4408 194.991 40.2873 194.734 35.4606H189.964C190.544 42.9903 196.603 47.6884 205.561 47.6884C215.1 47.6884 221.287 42.6042 221.287 34.624C221.287 28.3813 217.549 24.2625 210.33 22.5249L202.403 20.5942C197.569 19.3714 195.185 16.7971 195.185 12.7426C195.185 7.52974 199.438 4.18319 205.948 4.18319C211.748 4.18319 215.293 7.1436 215.808 12.3565H220.513C219.804 4.63369 214.326 0 206.012 0C196.731 0 190.544 5.08419 190.544 12.807Z" fill="#FAFAFA"/>
<path d="M226.473 31.3418C226.473 40.8022 233.176 47.6884 242.328 47.6884C251.48 47.6884 258.182 40.8022 258.182 31.3418C258.182 21.817 251.48 14.9308 242.328 14.9308C233.176 14.9308 226.473 21.817 226.473 31.3418ZM230.985 31.2774C230.985 24.0694 235.625 18.9209 242.328 18.9209C248.966 18.9209 253.671 24.0694 253.671 31.2774C253.671 38.6141 248.966 43.6983 242.328 43.6983C235.625 43.6983 230.985 38.6141 230.985 31.2774Z" fill="#FAFAFA"/>
<path d="M269.935 46.9161V0H265.488V46.9161H269.935Z" fill="#FAFAFA"/>
<path d="M301.306 15.7674V32.3071C301.306 39.7081 297.761 43.6983 291.768 43.6983C286.805 43.6983 283.518 41.0596 283.518 33.6586V15.7031H279.007V35.0744C279.007 42.6685 283.002 47.6884 290.35 47.6884C295.248 47.6884 299.566 45.2428 301.306 41.6388L301.886 46.9161H305.753V15.7674H301.306Z" fill="#FAFAFA"/>
<path d="M322.171 46.9161V19.5001H328.422V15.7674H322.171V5.92082H317.788V15.7674H311.536V19.5001H317.788V46.9161H322.171Z" fill="#FAFAFA"/>
<path d="M336.404 7.20796C338.209 7.20796 339.756 5.72775 339.756 3.92576C339.756 2.12377 338.209 0.579211 336.404 0.579211C334.6 0.579211 333.117 2.12377 333.117 3.92576C333.117 5.72775 334.6 7.20796 336.404 7.20796ZM334.213 46.9161H338.66V15.7674H334.213V46.9161Z" fill="#FAFAFA"/>
<path d="M345.742 31.3418C345.742 40.8022 352.445 47.6884 361.597 47.6884C370.749 47.6884 377.451 40.8022 377.451 31.3418C377.451 21.817 370.749 14.9308 361.597 14.9308C352.445 14.9308 345.742 21.817 345.742 31.3418ZM350.254 31.2774C350.254 24.0694 354.894 18.9209 361.597 18.9209C368.235 18.9209 372.94 24.0694 372.94 31.2774C372.94 38.6141 368.235 43.6983 361.597 43.6983C354.894 43.6983 350.254 38.6141 350.254 31.2774Z" fill="#FAFAFA"/>
<path d="M389.011 46.9161V30.6338C389.011 23.6189 392.62 18.9853 399.001 18.9853C404.157 18.9853 407.444 21.5595 407.444 28.8318V46.9161H411.891V27.8665C411.891 20.015 408.346 14.9308 399.774 14.9308C395.263 14.9308 391.138 17.1833 389.075 21.1734L388.431 15.7674H384.564V46.9161H389.011Z" fill="#FAFAFA"/>
<path d="M417.734 38.1636C417.734 43.9557 422.116 47.6884 429.141 47.6884C436.231 47.6884 441 44.02 441 38.421C441 33.916 438.551 31.4061 433.137 30.0546L427.788 28.7031C424.372 27.8665 422.696 26.1932 422.696 23.812C422.696 20.4655 425.145 18.5991 429.528 18.5991C433.717 18.5991 436.231 20.7229 436.36 24.3269H440.678C440.484 18.5348 436.231 14.9308 429.657 14.9308C422.954 14.9308 418.378 18.406 418.378 23.8764C418.378 28.1239 421.021 30.9556 426.434 32.3071L431.784 33.6586C435.457 34.5596 436.746 36.0398 436.746 38.6141C436.746 41.9606 433.911 44.02 429.077 44.02C424.694 44.02 421.987 41.7676 421.987 38.1636H417.734Z" fill="#FAFAFA"/>
<path d="M103.062 75.7426V68.4703H111.935V75.7426H112.966V60.5115H111.935V67.5264H103.062V60.5115H102.031V75.7426H103.062Z" fill="#FAFAFA"/>
<path d="M128.186 75.7426V74.7987H120.237V68.5775H127.455V67.6336H120.237V61.4554H128.164V60.5115H119.206V75.7426H128.186Z" fill="#FAFAFA"/>
<path d="M133.199 75.7426L134.789 71.4736H142.394L144.005 75.7426H145.058L139.343 60.5115H137.818L132.168 75.7426H133.199ZM138.441 61.6055C138.484 61.4983 138.548 61.3052 138.57 61.2194C138.591 61.3267 138.656 61.4768 138.699 61.6055L142.05 70.5297H135.133L138.441 61.6055Z" fill="#FAFAFA"/>
<path d="M146.55 61.4554H151.341V75.7426H152.372V61.4554H157.163V60.5115H146.55V61.4554Z" fill="#FAFAFA"/>
<path d="M162.698 60.5115H161.667V75.7426H162.698V60.5115Z" fill="#FAFAFA"/>
<path d="M169.95 75.7426V62.2062L178.908 75.7426H179.939V60.5115H178.908V74.0049L169.971 60.5115H168.918V75.7426H169.95Z" fill="#FAFAFA"/>
<path d="M192.429 61.2408C194.835 61.2408 196.747 62.3993 197.456 64.6088H198.594C197.928 61.9917 195.522 60.254 192.429 60.254C188.153 60.254 185.21 63.5148 185.21 68.1914C185.21 72.9109 188.175 76 192.536 76C195.178 76 197.176 74.6914 197.971 73.0181L198.1 75.764H198.874V67.6551H191.956V68.599H197.885V69.693C197.885 73.8977 194.985 75.0132 192.493 75.0132C188.776 75.0132 186.263 72.3746 186.263 68.1699C186.263 64.0296 188.712 61.2408 192.429 61.2408Z" fill="#FAFAFA"/>
<path d="M212.528 68.0412V68.9851H217.426V73.8977H218.372V68.9851H223.27V68.0412H218.372V63.1501H217.426V68.0412H212.528Z" fill="#FAFAFA"/>
<path d="M237.093 75.7426L238.682 71.4736H246.287L247.899 75.7426H248.951L243.237 60.5115H241.712L236.061 75.7426H237.093ZM242.335 61.6055C242.378 61.4983 242.442 61.3052 242.463 61.2194C242.485 61.3267 242.549 61.4768 242.592 61.6055L245.944 70.5297H239.026L242.335 61.6055Z" fill="#FAFAFA"/>
<path d="M254.599 60.5115H253.568V75.7426H254.599V60.5115Z" fill="#FAFAFA"/>
<path d="M261.85 75.7426V69.1567H266.813L270.143 75.7426H271.303L267.887 69.028C269.928 68.599 271.174 67.0115 271.174 64.7805C271.174 62.1847 269.348 60.5115 266.448 60.5115H260.819V75.7426H261.85ZM261.85 61.4554H266.448C268.682 61.4554 270.121 62.6567 270.121 64.8234C270.121 66.9257 268.789 68.2128 266.491 68.2128H261.85V61.4554Z" fill="#FAFAFA"/>
<path d="M291.137 75.9785C294.273 75.9785 296.894 74.1337 297.625 71.3878H296.486C295.777 73.5759 293.693 74.9917 291.158 74.9917C287.57 74.9917 285.121 72.2244 285.121 68.127C285.121 64.0296 287.57 61.2408 291.158 61.2408C293.693 61.2408 295.713 62.721 296.4 65.0808H297.539C296.873 62.1847 294.338 60.254 291.223 60.254C286.99 60.254 284.069 63.4719 284.069 68.127C284.069 72.7607 286.969 75.9785 291.137 75.9785Z" fill="#FAFAFA"/>
<path d="M316.225 68.127C316.225 63.5148 313.239 60.254 309.007 60.254C304.796 60.254 301.81 63.5148 301.81 68.127C301.81 72.7393 304.775 76 309.007 76C313.239 76 316.225 72.7393 316.225 68.127ZM315.172 68.127C315.172 72.1815 312.637 75.0132 309.007 75.0132C305.398 75.0132 302.863 72.1815 302.863 68.127C302.863 64.0725 305.398 61.2408 309.007 61.2408C312.637 61.2408 315.172 64.0725 315.172 68.127Z" fill="#FAFAFA"/>
<path d="M322.514 75.7426V62.2062L331.473 75.7426H332.504V60.5115H331.473V74.0049L322.536 60.5115H321.483V75.7426H322.514Z" fill="#FAFAFA"/>
<path d="M343.017 75.7426C347.636 75.7426 350.708 72.6964 350.708 68.127C350.708 63.5577 347.636 60.5115 343.017 60.5115H338.742V75.7426H343.017ZM343.017 61.4554C347.077 61.4554 349.655 64.0511 349.655 68.127C349.655 72.1815 347.034 74.7987 343.017 74.7987H339.773V61.4554H343.017Z" fill="#FAFAFA"/>
<path d="M357.01 60.5115H355.979V75.7426H357.01V60.5115Z" fill="#FAFAFA"/>
<path d="M361.512 61.4554H366.303V75.7426H367.334V61.4554H372.125V60.5115H361.512V61.4554Z" fill="#FAFAFA"/>
<path d="M377.66 60.5115H376.629V75.7426H377.66V60.5115Z" fill="#FAFAFA"/>
<path d="M384.912 75.7426V62.2062L393.87 75.7426H394.901V60.5115H393.87V74.0049L384.933 60.5115H383.88V75.7426H384.912Z" fill="#FAFAFA"/>
<path d="M402.17 60.5115H401.139V75.7426H402.17V60.5115Z" fill="#FAFAFA"/>
<path d="M409.422 75.7426V62.2062L418.38 75.7426H419.411V60.5115H418.38V74.0049L409.443 60.5115H408.39V75.7426H409.422Z" fill="#FAFAFA"/>
<path d="M431.901 61.2408C434.307 61.2408 436.219 62.3993 436.928 64.6088H438.066C437.4 61.9917 434.994 60.254 431.901 60.254C427.626 60.254 424.682 63.5148 424.682 68.1914C424.682 72.9109 427.647 76 432.008 76C434.651 76 436.648 74.6914 437.443 73.0181L437.572 75.764H438.346V67.6551H431.428V68.599H437.357V69.693C437.357 73.8977 434.457 75.0132 431.965 75.0132C428.249 75.0132 425.735 72.3746 425.735 68.1699C425.735 64.0296 428.184 61.2408 431.901 61.2408Z" fill="#FAFAFA"/>
<path d="M72 76H4C1.79086 76 0 74.2091 0 72V4C0 1.79086 1.79086 0 4 0H72C74.2091 0 76 1.79086 76 4V11.6923C69.6667 7.79487 63.8205 9.74359 57.9744 15.5897C52.2297 21.3344 48.992 21.3088 42.8718 15.1026L38.9744 19C48.0683 27.7579 53.1752 27.8793 62.359 19C67.7946 14.2675 70.8025 14.1557 76 19V30.6923C68.6923 26.3077 63.697 28.8671 57.9744 34.5897C52.2517 40.3124 49.0938 40.1758 42.8718 34.1026L38.9744 38C48.3782 46.8564 53.5223 46.8849 62.359 38C67.2358 34.228 70.5105 32.9779 76 38V50.6667C69.6667 47.7436 65.2821 47.7436 57.4872 55.0513C51.8976 60.2915 49.0356 60.5242 42.8718 54.5641L38.9744 58.9487C48.1942 67.3253 53.3626 66.9725 62.359 58.4615C67.6592 53.3245 70.6266 53.3824 76 58.4615V72C76 74.2091 74.2091 76 72 76Z" fill="#579AC1"/>
</svg>
