<svg width="512" height="512" viewBox="0 0 512 512" fill="none" xmlns="http://www.w3.org/2000/svg">
<path d="M488 512H24C10.7452 512 0 501.255 0 488V24C0 10.7452 10.7452 0 24 0H488C501.255 0 512 10.7451 512 24V78.7692C469.333 52.5128 429.949 65.641 390.564 105.026C351.863 143.727 330.052 143.554 288.821 101.744L262.564 128C323.829 187 358.233 187.818 420.103 128C456.721 96.1179 476.985 95.3644 512 128V206.769C462.769 177.231 429.116 194.473 390.564 233.026C352.012 271.578 330.737 270.658 288.821 229.744L262.564 256C325.916 315.664 360.571 315.856 420.103 256C452.957 230.589 475.018 222.167 512 256V341.333C469.333 321.641 439.795 321.641 387.282 370.872C349.626 406.174 330.345 407.742 288.821 367.59L262.564 397.128C324.677 453.56 359.495 451.183 420.103 393.846C455.81 359.239 475.801 359.628 512 393.846V488C512 501.255 501.255 512 488 512Z" fill="#5D9AC5"/>
</svg>
