<svg width="76" height="76" viewBox="0 0 76 76" fill="none" xmlns="http://www.w3.org/2000/svg">
<path d="M72 76H4C1.79086 76 0 74.2091 0 72V4C0 1.79086 1.79086 0 4 0H72C74.2091 0 76 1.79086 76 4V11.6923C69.6667 7.79487 63.8205 9.74359 57.9744 15.5897C52.2297 21.3344 48.992 21.3088 42.8718 15.1026L38.9744 19C48.0683 27.7579 53.1752 27.8793 62.359 19C67.7946 14.2675 70.8025 14.1557 76 19V30.6923C68.6923 26.3077 63.697 28.8671 57.9744 34.5897C52.2517 40.3124 49.0938 40.1758 42.8718 34.1026L38.9744 38C48.3782 46.8564 53.5223 46.8849 62.359 38C67.2358 34.228 70.5105 32.9779 76 38V50.6667C69.6667 47.7436 65.2821 47.7436 57.4872 55.0513C51.8976 60.2915 49.0356 60.5242 42.8718 54.5641L38.9744 58.9487C48.1942 67.3253 53.3626 66.9725 62.359 58.4615C67.6592 53.3245 70.6266 53.3824 76 58.4615V72C76 74.2091 74.2091 76 72 76Z" fill="#579AC1"/>
</svg>
