<svg width="24" height="25" viewBox="0 0 24 25" fill="none" xmlns="http://www.w3.org/2000/svg">
<path d="M12 0C5.232 0 0 5.16269 0 12.1255C0 15.7631 1.428 18.9257 3.768 21.0883C3.96 21.2508 4.08 21.5258 4.092 21.8008L4.152 24.0259C4.2 24.7384 4.884 25.2009 5.508 24.9134L7.884 23.8259C8.088 23.7509 8.316 23.7134 8.52 23.7509C9.6 24.0884 10.8 24.2509 12 24.2509C18.768 24.2509 24 19.0882 24 12.1255C24 5.16269 18.768 0 12 0ZM19.2 9.32535L15.684 15.1631C15.12 16.0756 13.92 16.3131 13.08 15.6256L10.272 13.463C10.1474 13.3656 9.99579 13.313 9.84 13.313C9.68421 13.313 9.53263 13.3656 9.408 13.463L5.616 16.4631C5.112 16.8756 4.452 16.2506 4.8 15.6756L8.316 9.83787C8.88 8.92533 10.08 8.68783 10.92 9.33785L13.728 11.5379C13.8526 11.6353 14.0042 11.6879 14.16 11.6879C14.3158 11.6879 14.4674 11.6353 14.592 11.5379L18.384 8.53782C18.888 8.1253 19.548 8.75033 19.2 9.32535Z" fill="#FAFAFA"/>
</svg>
