<svg width="665" height="94" viewBox="0 0 665 94" fill="none" xmlns="http://www.w3.org/2000/svg">
<path d="M32.672 63.416L33.6641 63.2904L33.2154 59.7457L31.7589 63.0083L32.672 63.416ZM33.632 71L32.6399 71.1256L32.7506 72H33.632V71ZM41.312 71V72H42.312V71H41.312ZM1.664 38.936H0.664V39.936H1.664V38.936ZM9.536 38.936V39.936H10.536V38.936H9.536ZM32.48 41.912L32.5577 42.909L33.48 42.8371V41.912H32.48ZM17.696 43.064L17.6183 42.067L17.618 42.067L17.696 43.064ZM20.576 49.208L20.4963 48.2112L20.4882 48.2118L20.4801 48.2126L20.576 49.208ZM32.576 48.248H33.576V47.1648L32.4963 47.2512L32.576 48.248ZM16.256 73.152C24.0844 73.152 30.9709 69.6796 33.5851 63.8237L31.7589 63.0083C29.5731 67.9044 23.5956 71.152 16.256 71.152V73.152ZM31.6799 63.5416L32.6399 71.1256L34.6241 70.8744L33.6641 63.2904L31.6799 63.5416ZM33.632 72H41.312V70H33.632V72ZM42.312 71V41.528H40.312V71H42.312ZM42.312 41.528C42.312 34.9779 40.2705 29.9796 36.598 26.6292C32.9404 23.2925 27.7983 21.712 21.824 21.712V23.712C27.4657 23.712 32.0676 25.2035 35.25 28.1068C38.4175 30.9964 40.312 35.4061 40.312 41.528H42.312ZM21.824 21.712C15.6076 21.712 10.3288 23.3645 6.58201 26.3722C2.81538 29.3957 0.664 33.7396 0.664 38.936H2.664C2.664 34.3404 4.54462 30.5723 7.83399 27.9318C11.1432 25.2755 15.9444 23.712 21.824 23.712V21.712ZM1.664 39.936H9.536V37.936H1.664V39.936ZM10.536 38.936C10.536 36.3866 11.4929 34.4367 13.2508 33.0949C15.0448 31.7254 17.7781 30.912 21.44 30.912V28.912C17.5179 28.912 14.2992 29.7786 12.0372 31.5051C9.7391 33.2593 8.536 35.8214 8.536 38.936H10.536ZM21.44 30.912C24.4833 30.912 26.9705 31.5835 28.6867 33.0486C30.3733 34.4883 31.48 36.8372 31.48 40.568H33.48C33.48 36.4268 32.2347 33.4477 29.9853 31.5274C27.7655 29.6325 24.7327 28.912 21.44 28.912V30.912ZM31.48 40.568V41.912H33.48V40.568H31.48ZM32.4023 40.915L17.6183 42.067L17.7737 44.061L32.5577 42.909L32.4023 40.915ZM17.618 42.067C11.966 42.5094 7.37224 44.1145 4.17351 46.8251C0.946876 49.5593 -0.776 53.3495 -0.776 57.944H1.224C1.224 53.8985 2.71712 50.6807 5.46649 48.3509C8.24377 45.9975 12.386 44.4826 17.774 44.061L17.618 42.067ZM-0.776 57.944C-0.776 62.4593 0.804112 66.2953 3.78943 68.9938C6.76427 71.6829 11.0331 73.152 16.256 73.152V71.152C11.3989 71.152 7.65173 69.7891 5.13057 67.5102C2.61989 65.2407 1.224 61.9727 1.224 57.944H-0.776ZM18.848 64.144C16.0413 64.144 13.9107 63.5429 12.5046 62.4755C11.1409 61.4402 10.344 59.8806 10.344 57.656H8.344C8.344 60.4234 9.37113 62.6078 11.2954 64.0685C13.1773 65.4971 15.7987 66.144 18.848 66.144V64.144ZM10.344 57.656C10.344 55.6215 11.0473 54.0042 12.5942 52.7749C14.1905 51.5063 16.7774 50.5788 20.6719 50.2034L20.4801 48.2126C16.4066 48.6052 13.3775 49.5977 11.3498 51.2091C9.27268 52.8598 8.344 55.0825 8.344 57.656H10.344ZM20.6557 50.2048L32.6557 49.2448L32.4963 47.2512L20.4963 48.2112L20.6557 50.2048ZM31.576 48.248V50.744H33.576V48.248H31.576ZM31.576 50.744C31.576 54.9666 30.3393 58.299 28.19 60.5684C26.0469 62.8311 22.8958 64.144 18.848 64.144V66.144C23.3442 66.144 27.0571 64.6729 29.642 61.9436C32.2207 59.221 33.576 55.3533 33.576 50.744H31.576ZM53.8093 71H52.8093V72H53.8093V71ZM62.8333 71V72H63.8333V71H62.8333ZM62.8333 24.056H63.8333V23.056H62.8333V24.056ZM53.8093 24.056V23.056H52.8093V24.056H53.8093ZM58.2253 13.92C62.0415 13.92 65.1773 10.7843 65.1773 6.96799H63.1773C63.1773 9.67971 60.937 11.92 58.2253 11.92V13.92ZM65.1773 6.96799C65.1773 3.04521 62.031 0.0159969 58.2253 0.0159969V2.016C60.9475 2.016 63.1773 4.17079 63.1773 6.96799H65.1773ZM58.2253 0.0159969C54.4195 0.0159969 51.2733 3.04521 51.2733 6.96799H53.2733C53.2733 4.17079 55.503 2.016 58.2253 2.016V0.0159969ZM51.2733 6.96799C51.2733 10.7843 54.409 13.92 58.2253 13.92V11.92C55.5135 11.92 53.2733 9.67971 53.2733 6.96799H51.2733ZM53.8093 72H62.8333V70H53.8093V72ZM63.8333 71V24.056H61.8333V71H63.8333ZM62.8333 23.056H53.8093V25.056H62.8333V23.056ZM52.8093 24.056V71H54.8093V24.056H52.8093ZM102.814 23.672H103.814V22.8606L103.02 22.6934L102.814 23.672ZM84.9583 31.256L83.9615 31.3368L85.8892 31.6211L84.9583 31.256ZM84.3823 24.152L85.379 24.0712L85.3045 23.152H84.3823V24.152ZM75.9343 24.152V23.152H74.9343V24.152H75.9343ZM75.9343 71H74.9343V72H75.9343V71ZM84.9583 71V72H85.9583V71H84.9583ZM102.814 31.928V32.928H103.814V31.928H102.814ZM103.02 22.6934C101.158 22.3014 99.7404 22.096 98.0143 22.096V24.096C99.5521 24.096 100.822 24.2746 102.608 24.6505L103.02 22.6934ZM98.0143 22.096C91.2152 22.096 86.113 25.5723 84.0273 30.8909L85.8892 31.6211C87.6435 27.1477 91.9493 24.096 98.0143 24.096V22.096ZM85.955 31.1752L85.379 24.0712L83.3855 24.2328L83.9615 31.3368L85.955 31.1752ZM84.3823 23.152H75.9343V25.152H84.3823V23.152ZM74.9343 24.152V71H76.9343V24.152H74.9343ZM75.9343 72H84.9583V70H75.9343V72ZM85.9583 71V46.136H83.9583V71H85.9583ZM85.9583 46.136C85.9583 41.8181 87.218 38.543 89.3786 36.3498C91.5378 34.158 94.7136 32.928 98.7823 32.928V30.928C94.3069 30.928 90.5707 32.29 87.9539 34.9462C85.3385 37.601 83.9583 41.4299 83.9583 46.136H85.9583ZM98.7823 32.928H102.814V30.928H98.7823V32.928ZM103.814 31.928V23.672H101.814V31.928H103.814ZM179.288 55.16L180.272 55.3364L180.483 54.16H179.288V55.16ZM170.264 55.16V54.16H169.515L169.304 54.8787L170.264 55.16ZM170.168 39.896L169.2 40.1459L169.393 40.896H170.168V39.896ZM179.192 39.896V40.896H180.36L180.18 39.7419L179.192 39.896ZM133.456 47.576C133.456 55.1733 135.802 61.5767 140.013 66.0902C144.23 70.6102 150.241 73.152 157.4 73.152V71.152C150.735 71.152 145.274 68.7978 141.475 64.7258C137.67 60.6473 135.456 54.7627 135.456 47.576H133.456ZM157.4 73.152C169.149 73.152 178.352 66.0491 180.272 55.3364L178.304 54.9836C176.576 64.6228 168.307 71.152 157.4 71.152V73.152ZM179.288 54.16H170.264V56.16H179.288V54.16ZM169.304 54.8787C167.813 59.966 163.448 63.088 157.4 63.088V65.088C164.216 65.088 169.451 61.49 171.224 55.4413L169.304 54.8787ZM157.4 63.088C153.403 63.088 150.186 61.5712 147.953 58.9198C145.705 56.2507 144.384 52.3467 144.384 47.48H142.384C142.384 52.6933 143.799 57.0933 146.423 60.2082C149.062 63.3408 152.853 65.088 157.4 65.088V63.088ZM144.384 47.48C144.384 42.5797 145.793 38.6542 148.134 35.9692C150.464 33.296 153.783 31.776 157.784 31.776V29.776C153.241 29.776 149.36 31.52 146.626 34.6548C143.903 37.7778 142.384 42.2043 142.384 47.48H144.384ZM157.784 31.776C163.442 31.776 167.793 34.6965 169.2 40.1459L171.136 39.6461C169.471 33.1915 164.222 29.776 157.784 29.776V31.776ZM170.168 40.896H179.192V38.896H170.168V40.896ZM180.18 39.7419C179.328 34.2789 176.736 29.7527 172.784 26.5984C168.836 23.448 163.59 21.712 157.496 21.712V23.712C163.21 23.712 167.996 25.336 171.536 28.1616C175.072 30.9833 177.424 35.0491 178.204 40.0501L180.18 39.7419ZM157.496 21.712C150.372 21.712 144.339 24.3587 140.093 28.9576C135.853 33.5499 133.456 40.0207 133.456 47.576H135.456C135.456 40.4433 137.715 34.4821 141.563 30.3144C145.405 26.1533 150.892 23.712 157.496 23.712V21.712ZM184.737 47.48C184.737 62.5283 195.553 73.152 210.217 73.152V71.152C196.658 71.152 186.737 61.4237 186.737 47.48H184.737ZM210.217 73.152C224.788 73.152 235.601 62.5257 235.601 47.48H233.601C233.601 61.4263 223.678 71.152 210.217 71.152V73.152ZM235.601 47.48C235.601 32.4343 224.788 21.808 210.217 21.808V23.808C223.678 23.808 233.601 33.5337 233.601 47.48H235.601ZM210.217 21.808C195.553 21.808 184.737 32.4317 184.737 47.48H186.737C186.737 33.5363 196.658 23.808 210.217 23.808V21.808ZM195.857 47.48C195.857 42.7966 197.347 38.8986 199.852 36.1819C202.352 33.4717 205.919 31.872 210.217 31.872V29.872C205.395 29.872 201.283 31.6803 198.382 34.8261C195.487 37.9654 193.857 42.3714 193.857 47.48H195.857ZM210.217 31.872C214.465 31.872 218.034 33.4703 220.548 36.1835C223.066 38.9023 224.577 42.8006 224.577 47.48H226.577C226.577 42.3674 224.921 37.9617 222.015 34.8245C219.104 31.6817 214.993 29.872 210.217 29.872V31.872ZM224.577 47.48C224.577 52.1594 223.066 56.0577 220.548 58.7765C218.034 61.4897 214.465 63.088 210.217 63.088V65.088C214.993 65.088 219.104 63.2783 222.015 60.1355C224.921 56.9983 226.577 52.5926 226.577 47.48H224.577ZM210.217 63.088C205.919 63.088 202.352 61.4883 199.852 58.7781C197.347 56.0614 195.857 52.1634 195.857 47.48H193.857C193.857 52.5886 195.487 56.9946 198.382 60.1339C201.283 63.2797 205.395 65.088 210.217 65.088V63.088ZM253.615 71V72H254.615V71H253.615ZM278.287 71H277.287V72H278.287V71ZM287.311 71V72H288.311V71H287.311ZM253.711 31.256L252.719 31.3882L253.119 34.3887L254.585 31.7403L253.711 31.256ZM252.751 24.056L253.742 23.9238L253.626 23.056H252.751V24.056ZM244.591 24.056V23.056H243.591V24.056H244.591ZM244.591 71H243.591V72H244.591V71ZM254.615 71V46.136H252.615V71H254.615ZM254.615 46.136C254.615 41.7461 255.793 38.2082 257.877 35.7839C259.945 33.3784 262.99 31.968 266.959 31.968V29.968C262.479 29.968 258.852 31.5816 256.36 34.4801C253.884 37.3598 252.615 41.4059 252.615 46.136H254.615ZM266.959 31.968C270.232 31.968 272.756 32.873 274.477 34.7515C276.213 36.646 277.287 39.6971 277.287 44.312H279.287C279.287 39.4229 278.152 35.802 275.952 33.4005C273.737 30.983 270.597 29.968 266.959 29.968V31.968ZM277.287 44.312V71H279.287V44.312H277.287ZM278.287 72H287.311V70H278.287V72ZM288.311 71V42.296H286.311V71H288.311ZM288.311 42.296C288.311 36.1555 286.863 30.9886 283.684 27.3464C280.484 23.6806 275.666 21.712 269.263 21.712V23.712C275.243 23.712 279.449 25.5353 282.177 28.6616C284.926 31.8114 286.311 36.4365 286.311 42.296H288.311ZM269.263 21.712C262.329 21.712 256.012 25.0329 252.836 30.7717L254.585 31.7403C257.361 26.7271 262.948 23.712 269.263 23.712V21.712ZM254.702 31.1238L253.742 23.9238L251.759 24.1882L252.719 31.3882L254.702 31.1238ZM252.751 23.056H244.591V25.056H252.751V23.056ZM243.591 24.056V71H245.591V24.056H243.591ZM244.591 72H253.615V70H244.591V72ZM335.521 62.456L336.517 62.3665L336.191 58.734L334.619 62.025L335.521 62.456ZM336.289 71L335.293 71.0895L335.375 72H336.289V71ZM344.353 71V72H345.353V71H344.353ZM344.353 0.343994H345.353V-0.656006H344.353V0.343994ZM335.425 0.343994V-0.656006H334.425V0.343994H335.425ZM335.425 31.64L334.549 32.1219L336.425 31.64H335.425ZM318.625 73.152C326.41 73.152 333.151 69.7398 336.424 62.887L334.619 62.025C331.748 68.0362 325.816 71.152 318.625 71.152V73.152ZM334.525 62.5455L335.293 71.0895L337.285 70.9105L336.517 62.3665L334.525 62.5455ZM336.289 72H344.353V70H336.289V72ZM345.353 71V0.343994H343.353V71H345.353ZM344.353 -0.656006H335.425V1.34399H344.353V-0.656006ZM334.425 0.343994V31.64H336.425V0.343994H334.425ZM336.301 31.1581C332.929 25.026 326.51 21.712 319.009 21.712V23.712C325.909 23.712 331.586 26.7339 334.549 32.1219L336.301 31.1581ZM319.009 21.712C311.777 21.712 305.925 24.4652 301.896 29.139C297.88 33.7968 295.737 40.285 295.737 47.672H297.737C297.737 40.659 299.77 34.6672 303.411 30.445C307.037 26.2388 312.322 23.712 319.009 23.712V21.712ZM295.737 47.672C295.737 55.0105 297.856 61.3809 301.815 65.9323C305.787 70.4989 311.542 73.152 318.625 73.152V71.152C312.076 71.152 306.888 68.7171 303.324 64.6197C299.747 60.5071 297.737 54.6375 297.737 47.672H295.737ZM320.449 62.992C316.112 62.992 312.751 61.376 310.46 58.6768C308.152 55.9588 306.857 52.0553 306.857 47.384H304.857C304.857 52.4087 306.25 56.8092 308.935 59.9712C311.635 63.152 315.571 64.992 320.449 64.992V62.992ZM306.857 47.384C306.857 42.7629 308.151 38.8835 310.458 36.1767C312.75 33.4883 316.112 31.872 320.449 31.872V29.872C315.571 29.872 311.636 31.7117 308.936 34.8793C306.252 38.0285 304.857 42.4051 304.857 47.384H306.857ZM320.449 31.872C324.789 31.872 328.228 33.4906 330.593 36.1874C332.971 38.898 334.329 42.7757 334.329 47.384H336.329C336.329 42.3923 334.856 38.014 332.097 34.8686C329.326 31.7094 325.325 29.872 320.449 29.872V31.872ZM334.329 47.384C334.329 52.0925 332.968 55.9926 330.593 58.7006C328.231 61.3945 324.794 62.992 320.449 62.992V64.992C325.321 64.992 329.324 63.1815 332.097 60.0194C334.858 56.8714 336.329 52.4675 336.329 47.384H334.329ZM357.372 71H356.372V72H357.372V71ZM366.396 71V72H367.396V71H366.396ZM366.396 24.056H367.396V23.056H366.396V24.056ZM357.372 24.056V23.056H356.372V24.056H357.372ZM361.788 13.92C365.604 13.92 368.74 10.7843 368.74 6.96799H366.74C366.74 9.67971 364.499 11.92 361.788 11.92V13.92ZM368.74 6.96799C368.74 3.04521 365.593 0.0159969 361.788 0.0159969V2.016C364.51 2.016 366.74 4.17079 366.74 6.96799H368.74ZM361.788 0.0159969C357.982 0.0159969 354.836 3.04521 354.836 6.96799H356.836C356.836 4.17079 359.065 2.016 361.788 2.016V0.0159969ZM354.836 6.96799C354.836 10.7843 357.971 13.92 361.788 13.92V11.92C359.076 11.92 356.836 9.67971 356.836 6.96799H354.836ZM357.372 72H366.396V70H357.372V72ZM367.396 71V24.056H365.396V71H367.396ZM366.396 23.056H357.372V25.056H366.396V23.056ZM356.372 24.056V71H358.372V24.056H356.372ZM392.745 71V72H393.745V71H392.745ZM392.745 31.64V30.64H391.745V31.64H392.745ZM401.961 31.64V32.64H402.961V31.64H401.961ZM401.961 24.056H402.961V23.056H401.961V24.056ZM392.745 24.056H391.745V25.056H392.745V24.056ZM392.745 9.368H393.745V8.368H392.745V9.368ZM383.721 9.368V8.368H382.721V9.368H383.721ZM383.721 24.056V25.056H384.721V24.056H383.721ZM374.505 24.056V23.056H373.505V24.056H374.505ZM374.505 31.64H373.505V32.64H374.505V31.64ZM383.721 31.64H384.721V30.64H383.721V31.64ZM383.721 71H382.721V72H383.721V71ZM393.745 71V31.64H391.745V71H393.745ZM392.745 32.64H401.961V30.64H392.745V32.64ZM402.961 31.64V24.056H400.961V31.64H402.961ZM401.961 23.056H392.745V25.056H401.961V23.056ZM393.745 24.056V9.368H391.745V24.056H393.745ZM392.745 8.368H383.721V10.368H392.745V8.368ZM382.721 9.368V24.056H384.721V9.368H382.721ZM383.721 23.056H374.505V25.056H383.721V23.056ZM373.505 24.056V31.64H375.505V24.056H373.505ZM374.505 32.64H383.721V30.64H374.505V32.64ZM382.721 31.64V71H384.721V31.64H382.721ZM383.721 72H392.745V70H383.721V72ZM410.059 71H409.059V72H410.059V71ZM419.083 71V72H420.083V71H419.083ZM419.083 24.056H420.083V23.056H419.083V24.056ZM410.059 24.056V23.056H409.059V24.056H410.059ZM414.475 13.92C418.292 13.92 421.427 10.7843 421.427 6.96799H419.427C419.427 9.67971 417.187 11.92 414.475 11.92V13.92ZM421.427 6.96799C421.427 3.04521 418.281 0.0159969 414.475 0.0159969V2.016C417.198 2.016 419.427 4.17079 419.427 6.96799H421.427ZM414.475 0.0159969C410.67 0.0159969 407.523 3.04521 407.523 6.96799H409.523C409.523 4.17079 411.753 2.016 414.475 2.016V0.0159969ZM407.523 6.96799C407.523 10.7843 410.659 13.92 414.475 13.92V11.92C411.764 11.92 409.523 9.67971 409.523 6.96799H407.523ZM410.059 72H419.083V70H410.059V72ZM420.083 71V24.056H418.083V71H420.083ZM419.083 23.056H410.059V25.056H419.083V23.056ZM409.059 24.056V71H411.059V24.056H409.059ZM428.112 47.48C428.112 62.5283 438.928 73.152 453.592 73.152V71.152C440.033 71.152 430.112 61.4237 430.112 47.48H428.112ZM453.592 73.152C468.163 73.152 478.976 62.5257 478.976 47.48H476.976C476.976 61.4263 467.053 71.152 453.592 71.152V73.152ZM478.976 47.48C478.976 32.4343 468.163 21.808 453.592 21.808V23.808C467.053 23.808 476.976 33.5337 476.976 47.48H478.976ZM453.592 21.808C438.928 21.808 428.112 32.4317 428.112 47.48H430.112C430.112 33.5363 440.033 23.808 453.592 23.808V21.808ZM439.232 47.48C439.232 42.7966 440.722 38.8986 443.227 36.1819C445.727 33.4717 449.294 31.872 453.592 31.872V29.872C448.77 29.872 444.658 31.6803 441.757 34.8261C438.862 37.9654 437.232 42.3714 437.232 47.48H439.232ZM453.592 31.872C457.84 31.872 461.409 33.4703 463.923 36.1835C466.441 38.9023 467.952 42.8006 467.952 47.48H469.952C469.952 42.3674 468.296 37.9617 465.39 34.8245C462.479 31.6817 458.368 29.872 453.592 29.872V31.872ZM467.952 47.48C467.952 52.1594 466.441 56.0577 463.923 58.7765C461.409 61.4897 457.84 63.088 453.592 63.088V65.088C458.368 65.088 462.479 63.2783 465.39 60.1355C468.296 56.9983 469.952 52.5926 469.952 47.48H467.952ZM453.592 63.088C449.294 63.088 445.727 61.4883 443.227 58.7781C440.722 56.0614 439.232 52.1634 439.232 47.48H437.232C437.232 52.5886 438.862 56.9946 441.757 60.1339C444.658 63.2797 448.77 65.088 453.592 65.088V63.088ZM496.99 71V72H497.99V71H496.99ZM521.662 71H520.662V72H521.662V71ZM530.686 71V72H531.686V71H530.686ZM497.086 31.256L496.094 31.3882L496.494 34.3887L497.96 31.7403L497.086 31.256ZM496.126 24.056L497.117 23.9238L497.001 23.056H496.126V24.056ZM487.966 24.056V23.056H486.966V24.056H487.966ZM487.966 71H486.966V72H487.966V71ZM497.99 71V46.136H495.99V71H497.99ZM497.99 46.136C497.99 41.7461 499.168 38.2082 501.252 35.7839C503.32 33.3784 506.365 31.968 510.334 31.968V29.968C505.854 29.968 502.227 31.5816 499.735 34.4801C497.259 37.3598 495.99 41.4059 495.99 46.136H497.99ZM510.334 31.968C513.607 31.968 516.131 32.873 517.852 34.7515C519.588 36.646 520.662 39.6971 520.662 44.312H522.662C522.662 39.4229 521.527 35.802 519.327 33.4005C517.112 30.983 513.972 29.968 510.334 29.968V31.968ZM520.662 44.312V71H522.662V44.312H520.662ZM521.662 72H530.686V70H521.662V72ZM531.686 71V42.296H529.686V71H531.686ZM531.686 42.296C531.686 36.1555 530.238 30.9886 527.059 27.3464C523.859 23.6806 519.041 21.712 512.638 21.712V23.712C518.618 23.712 522.824 25.5353 525.552 28.6616C528.301 31.8114 529.686 36.4365 529.686 42.296H531.686ZM512.638 21.712C505.704 21.712 499.387 25.0329 496.211 30.7717L497.96 31.7403C500.736 26.7271 506.323 23.712 512.638 23.712V21.712ZM498.077 31.1238L497.117 23.9238L495.134 24.1882L496.094 31.3882L498.077 31.1238ZM496.126 23.056H487.966V25.056H496.126V23.056ZM486.966 24.056V71H488.966V24.056H486.966ZM487.966 72H496.99V70H487.966V72ZM543.184 71H542.184V72H543.184V71ZM552.208 71V72H553.208V71H552.208ZM552.208 24.056H553.208V23.056H552.208V24.056ZM543.184 24.056V23.056H542.184V24.056H543.184ZM547.6 13.92C551.417 13.92 554.552 10.7843 554.552 6.96799H552.552C552.552 9.67971 550.312 11.92 547.6 11.92V13.92ZM554.552 6.96799C554.552 3.04521 551.406 0.0159969 547.6 0.0159969V2.016C550.323 2.016 552.552 4.17079 552.552 6.96799H554.552ZM547.6 0.0159969C543.795 0.0159969 540.648 3.04521 540.648 6.96799H542.648C542.648 4.17079 544.878 2.016 547.6 2.016V0.0159969ZM540.648 6.96799C540.648 10.7843 543.784 13.92 547.6 13.92V11.92C544.889 11.92 542.648 9.67971 542.648 6.96799H540.648ZM543.184 72H552.208V70H543.184V72ZM553.208 71V24.056H551.208V71H553.208ZM552.208 23.056H543.184V25.056H552.208V23.056ZM542.184 24.056V71H544.184V24.056H542.184ZM574.333 71V72H575.333V71H574.333ZM599.005 71H598.005V72H599.005V71ZM608.029 71V72H609.029V71H608.029ZM574.429 31.256L573.438 31.3882L573.838 34.3887L575.304 31.7403L574.429 31.256ZM573.469 24.056L574.46 23.9238L574.345 23.056H573.469V24.056ZM565.309 24.056V23.056H564.309V24.056H565.309ZM565.309 71H564.309V72H565.309V71ZM575.333 71V46.136H573.333V71H575.333ZM575.333 46.136C575.333 41.7461 576.511 38.2082 578.596 35.7839C580.664 33.3784 583.709 31.968 587.677 31.968V29.968C583.197 29.968 579.571 31.5816 577.079 34.4801C574.603 37.3598 573.333 41.4059 573.333 46.136H575.333ZM587.677 31.968C590.951 31.968 593.475 32.873 595.196 34.7515C596.932 36.646 598.005 39.6971 598.005 44.312H600.005C600.005 39.4229 598.871 35.802 596.671 33.4005C594.456 30.983 591.316 29.968 587.677 29.968V31.968ZM598.005 44.312V71H600.005V44.312H598.005ZM599.005 72H608.029V70H599.005V72ZM609.029 71V42.296H607.029V71H609.029ZM609.029 42.296C609.029 36.1555 607.582 30.9886 604.403 27.3464C601.203 23.6806 596.385 21.712 589.981 21.712V23.712C595.962 23.712 600.167 25.5353 602.896 28.6616C605.645 31.8114 607.029 36.4365 607.029 42.296H609.029ZM589.981 21.712C583.047 21.712 576.731 25.0329 573.554 30.7717L575.304 31.7403C578.079 26.7271 583.667 23.712 589.981 23.712V21.712ZM575.42 31.1238L574.46 23.9238L572.478 24.1882L573.438 31.3882L575.42 31.1238ZM573.469 23.056H565.309V25.056H573.469V23.056ZM564.309 24.056V71H566.309V24.056H564.309ZM565.309 72H574.333V70H565.309V72ZM655.952 61.016H656.952V57.192L655.08 60.5265L655.952 61.016ZM627.152 74.168L628.138 74.0036L627.999 73.168H627.152V74.168ZM618.128 74.168V73.168H616.972L617.138 74.3117L618.128 74.168ZM664.88 24.056H665.88V23.056H664.88V24.056ZM656.816 24.056V23.056H655.897L655.82 23.972L656.816 24.056ZM656.144 32.024L655.253 32.477L656.845 35.6108L657.14 32.108L656.144 32.024ZM616.552 46.328C616.552 53.1153 618.733 59.2198 622.7 63.6399C626.676 68.0708 632.398 70.752 639.344 70.752V68.752C632.946 68.752 627.772 66.2972 624.188 62.3041C620.595 58.3002 618.552 52.6927 618.552 46.328H616.552ZM639.344 70.752C647.027 70.752 653.543 67.3502 656.824 61.5055L655.08 60.5265C652.217 65.6258 646.445 68.752 639.344 68.752V70.752ZM654.952 61.016V70.424H656.952V61.016H654.952ZM654.952 70.424C654.952 74.6692 653.587 78.072 651.259 80.4106C648.932 82.7488 645.554 84.112 641.36 84.112V86.112C645.998 86.112 649.916 84.5952 652.677 81.8214C655.437 79.048 656.952 75.1068 656.952 70.424H654.952ZM641.36 84.112C637.592 84.112 634.558 83.1481 632.347 81.4405C630.145 79.74 628.678 77.2401 628.138 74.0036L626.166 74.3324C626.778 78.0079 628.479 80.98 631.125 83.0235C633.762 85.0599 637.256 86.112 641.36 86.112V84.112ZM627.152 73.168H618.128V75.168H627.152V73.168ZM617.138 74.3117C618.034 80.4804 620.759 85.492 624.969 88.9562C629.174 92.4166 634.787 94.272 641.36 94.272V92.272C635.165 92.272 630.026 90.5274 626.239 87.4118C622.457 84.3 619.95 79.7596 619.118 74.0243L617.138 74.3117ZM641.36 94.272C648.783 94.272 654.939 91.8418 659.237 87.4168C663.533 82.9949 665.88 76.6786 665.88 69.08H663.88C663.88 76.2654 661.667 82.0451 657.803 86.0232C653.941 89.9982 648.337 92.272 641.36 92.272V94.272ZM665.88 69.08V24.056H663.88V69.08H665.88ZM664.88 23.056H656.816V25.056H664.88V23.056ZM655.82 23.972L655.148 31.94L657.14 32.108L657.812 24.14L655.82 23.972ZM657.035 31.5709C653.868 25.3389 647.641 21.712 639.728 21.712V23.712C646.983 23.712 652.468 26.9971 655.253 32.477L657.035 31.5709ZM639.728 21.712C632.642 21.712 626.824 24.4144 622.786 28.8814C618.758 33.3379 616.552 39.4916 616.552 46.328H618.552C618.552 39.9164 620.618 34.2621 624.27 30.2226C627.912 26.1936 633.182 23.712 639.728 23.712V21.712ZM627.576 46.136C627.576 42.0185 628.856 38.3777 631.143 35.7808C633.416 33.1978 636.739 31.584 640.976 31.584V29.584C636.189 29.584 632.312 31.4262 629.641 34.4592C626.984 37.4783 625.576 41.6135 625.576 46.136H627.576ZM640.976 31.584C645.334 31.584 648.701 33.1192 650.986 35.6467C653.283 38.1867 654.568 41.8183 654.568 46.136H656.568C656.568 41.4297 655.165 37.2853 652.47 34.3053C649.764 31.3128 645.834 29.584 640.976 29.584V31.584ZM654.568 46.136C654.568 50.5457 653.238 54.2255 650.904 56.7912C648.581 59.3461 645.188 60.88 640.88 60.88V62.88C645.692 62.88 649.643 61.1499 652.384 58.1368C655.114 55.1345 656.568 50.9423 656.568 46.136H654.568ZM640.88 60.88C636.745 60.88 633.446 59.2708 631.169 56.6624C628.881 54.0406 627.576 50.3502 627.576 46.136H625.576C625.576 50.7538 627.007 54.9354 629.663 57.9776C632.33 61.0332 636.183 62.88 640.88 62.88V60.88Z" fill="#FAFAFA"/>
</svg>
