<svg width="311" height="94" viewBox="0 0 311 94" fill="none" xmlns="http://www.w3.org/2000/svg">
<path d="M9.552 70.904V71.904H10.552V70.904H9.552ZM34.224 71H33.224V72H34.224V71ZM43.248 71V72H44.248V71H43.248ZM9.552 31.256H8.552V34.9463L10.4152 31.7609L9.552 31.256ZM9.552 0.343994H10.552V-0.656006H9.552V0.343994ZM0.528 0.343994V-0.656006H-0.472V0.343994H0.528ZM0.528 70.904H-0.472V71.904H0.528V70.904ZM10.552 70.904V45.368H8.552V70.904H10.552ZM10.552 45.368C10.552 41.5231 11.673 38.1746 13.7486 35.8025C15.8089 33.4478 18.8842 31.968 22.992 31.968V29.968C18.3638 29.968 14.7191 31.6562 12.2434 34.4855C9.78303 37.2974 8.552 41.1489 8.552 45.368H10.552ZM22.992 31.968C26.1627 31.968 28.6659 32.8691 30.3907 34.7515C32.1289 36.6488 33.224 39.7025 33.224 44.312H35.224C35.224 39.4175 34.0631 35.7992 31.8653 33.4005C29.6541 30.9869 26.5413 29.968 22.992 29.968V31.968ZM33.224 44.312V71H35.224V44.312H33.224ZM34.224 72H43.248V70H34.224V72ZM44.248 71V42.296H42.248V71H44.248ZM44.248 42.296C44.248 36.1516 42.7745 30.9886 39.624 27.3495C36.4529 23.6865 31.7087 21.712 25.488 21.712V23.712C31.2673 23.712 35.4031 25.5295 38.112 28.6585C40.8415 31.8114 42.248 36.4404 42.248 42.296H44.248ZM25.488 21.712C17.858 21.712 11.8547 25.3385 8.68881 30.7511L10.4152 31.7609C13.2013 26.9975 18.526 23.712 25.488 23.712V21.712ZM10.552 31.256V0.343994H8.552V31.256H10.552ZM9.552 -0.656006H0.528V1.34399H9.552V-0.656006ZM-0.472 0.343994V70.904H1.528V0.343994H-0.472ZM0.528 71.904H9.552V69.904H0.528V71.904ZM97.7948 56.408L98.7696 56.6308L99.0491 55.408H97.7948V56.408ZM89.3467 56.408V55.408H88.5925L88.3852 56.1333L89.3467 56.408ZM61.4108 49.304L61.4081 48.304L60.3407 48.3068L60.4131 49.3718L61.4108 49.304ZM97.6987 49.208L97.7014 50.208L98.6987 50.2054V49.208H97.6987ZM88.6748 43.256V44.256H89.6748V43.256H88.6748ZM61.6028 43.256L60.6123 43.1178L60.4535 44.256H61.6028V43.256ZM76.0028 73.152C81.9707 73.152 87.061 71.6963 90.976 68.8709C94.9003 66.0387 97.569 61.8833 98.7696 56.6308L96.8199 56.1852C95.7165 61.0127 93.2972 64.7293 89.8055 67.2491C86.3045 69.7757 81.6508 71.152 76.0028 71.152V73.152ZM97.7948 55.408H89.3467V57.408H97.7948V55.408ZM88.3852 56.1333C87.6817 58.5957 86.2921 60.4504 84.2915 61.7048C82.2737 62.97 79.5689 63.664 76.1947 63.664V65.664C79.8286 65.664 82.9318 64.918 85.354 63.3992C87.7934 61.8696 89.4758 59.5963 90.3083 56.6827L88.3852 56.1333ZM76.1947 63.664C71.9438 63.664 68.6985 62.3681 66.4287 60C64.1443 57.6168 62.7342 54.029 62.4084 49.2362L60.4131 49.3718C60.7593 54.467 62.2772 58.5592 64.9848 61.384C67.707 64.2239 71.5177 65.664 76.1947 65.664V63.664ZM61.4134 50.304L97.7014 50.208L97.6961 48.208L61.4081 48.304L61.4134 50.304ZM98.6987 49.208V45.848H96.6987V49.208H98.6987ZM98.6987 45.848C98.6987 38.6779 96.4457 32.6315 92.3868 28.3703C88.3234 24.1043 82.5297 21.712 75.6188 21.712V23.712C82.0518 23.712 87.2981 25.9277 90.9387 29.7497C94.5838 33.5765 96.6987 39.0981 96.6987 45.848H98.6987ZM75.6188 21.712C68.5412 21.712 62.5322 24.3602 58.299 28.9587C54.072 33.5505 51.6748 40.0207 51.6748 47.576H53.6748C53.6748 40.4433 55.9335 34.4814 59.7705 30.3133C63.6013 26.1518 69.0643 23.712 75.6188 23.712V21.712ZM51.6748 47.576C51.6748 55.0912 54.1252 61.4936 58.4297 66.0247C62.7382 70.5599 68.8402 73.152 76.0028 73.152V71.152C69.3413 71.152 63.7793 68.7521 59.8798 64.6472C55.9763 60.5384 53.6748 54.6528 53.6748 47.576H51.6748ZM75.6188 31.296C79.3813 31.296 82.376 32.5155 84.4276 34.5671C86.4797 36.6192 87.6748 39.5902 87.6748 43.256H89.6748C89.6748 39.1458 88.3258 35.6368 85.8419 33.1529C83.3575 30.6685 79.8242 29.296 75.6188 29.296V31.296ZM88.6748 42.256H61.6028V44.256H88.6748V42.256ZM62.5932 43.3942C63.1458 39.4334 64.604 36.4268 66.7715 34.4125C68.9315 32.4053 71.8895 31.296 75.6188 31.296V29.296C71.476 29.296 68.002 30.5387 65.41 32.9475C62.8255 35.3492 61.2117 38.8226 60.6123 43.1178L62.5932 43.3942ZM137.453 63.416L138.445 63.2904L137.997 59.7457L136.54 63.0083L137.453 63.416ZM138.413 71L137.421 71.1256L137.532 72H138.413V71ZM146.093 71V72H147.093V71H146.093ZM106.445 38.936H105.445V39.936H106.445V38.936ZM114.317 38.936V39.936H115.317V38.936H114.317ZM137.261 41.912L137.339 42.909L138.261 42.8371V41.912H137.261ZM122.477 43.064L122.4 42.067L122.399 42.067L122.477 43.064ZM125.357 49.208L125.278 48.2112L125.269 48.2118L125.261 48.2126L125.357 49.208ZM137.357 48.248H138.357V47.1648L137.278 47.2512L137.357 48.248ZM121.037 73.152C128.866 73.152 135.752 69.6796 138.366 63.8237L136.54 63.0083C134.354 67.9044 128.377 71.152 121.037 71.152V73.152ZM136.461 63.5416L137.421 71.1256L139.405 70.8744L138.445 63.2904L136.461 63.5416ZM138.413 72H146.093V70H138.413V72ZM147.093 71V41.528H145.093V71H147.093ZM147.093 41.528C147.093 34.9779 145.052 29.9796 141.379 26.6292C137.722 23.2925 132.58 21.712 126.605 21.712V23.712C132.247 23.712 136.849 25.2035 140.031 28.1068C143.199 30.9964 145.093 35.4061 145.093 41.528H147.093ZM126.605 21.712C120.389 21.712 115.11 23.3645 111.363 26.3722C107.597 29.3957 105.445 33.7396 105.445 38.936H107.445C107.445 34.3404 109.326 30.5723 112.615 27.9318C115.924 25.2755 120.726 23.712 126.605 23.712V21.712ZM106.445 39.936H114.317V37.936H106.445V39.936ZM115.317 38.936C115.317 36.3866 116.274 34.4367 118.032 33.0949C119.826 31.7254 122.559 30.912 126.221 30.912V28.912C122.299 28.912 119.08 29.7786 116.818 31.5051C114.52 33.2593 113.317 35.8214 113.317 38.936H115.317ZM126.221 30.912C129.265 30.912 131.752 31.5835 133.468 33.0486C135.155 34.4883 136.261 36.8372 136.261 40.568H138.261C138.261 36.4268 137.016 33.4477 134.767 31.5274C132.547 29.6325 129.514 28.912 126.221 28.912V30.912ZM136.261 40.568V41.912H138.261V40.568H136.261ZM137.184 40.915L122.4 42.067L122.555 44.061L137.339 42.909L137.184 40.915ZM122.399 42.067C116.747 42.5094 112.153 44.1145 108.955 46.8251C105.728 49.5593 104.005 53.3495 104.005 57.944H106.005C106.005 53.8985 107.498 50.6807 110.248 48.3509C113.025 45.9975 117.167 44.4826 122.555 44.061L122.399 42.067ZM104.005 57.944C104.005 62.4593 105.585 66.2953 108.571 68.9938C111.546 71.6829 115.814 73.152 121.037 73.152V71.152C116.18 71.152 112.433 69.7891 109.912 67.5102C107.401 65.2407 106.005 61.9727 106.005 57.944H104.005ZM123.629 64.144C120.823 64.144 118.692 63.5429 117.286 62.4755C115.922 61.4402 115.125 59.8806 115.125 57.656H113.125C113.125 60.4234 114.152 62.6078 116.077 64.0685C117.959 65.4971 120.58 66.144 123.629 66.144V64.144ZM115.125 57.656C115.125 55.6215 115.829 54.0042 117.375 52.7749C118.972 51.5063 121.559 50.5788 125.453 50.2034L125.261 48.2126C121.188 48.6052 118.159 49.5977 116.131 51.2091C114.054 52.8598 113.125 55.0825 113.125 57.656H115.125ZM125.437 50.2048L137.437 49.2448L137.278 47.2512L125.278 48.2112L125.437 50.2048ZM136.357 48.248V50.744H138.357V48.248H136.357ZM136.357 50.744C136.357 54.9667 135.121 58.299 132.971 60.5684C130.828 62.8311 127.677 64.144 123.629 64.144V66.144C128.125 66.144 131.838 64.6729 134.423 61.9436C137.002 59.221 138.357 55.3533 138.357 50.744H136.357ZM171.089 71V72H172.089V71H171.089ZM171.089 31.64V30.64H170.089V31.64H171.089ZM180.305 31.64V32.64H181.305V31.64H180.305ZM180.305 24.056H181.305V23.056H180.305V24.056ZM171.089 24.056H170.089V25.056H171.089V24.056ZM171.089 9.368H172.089V8.368H171.089V9.368ZM162.064 9.368V8.368H161.064V9.368H162.064ZM162.064 24.056V25.056H163.064V24.056H162.064ZM152.848 24.056V23.056H151.848V24.056H152.848ZM152.848 31.64H151.848V32.64H152.848V31.64ZM162.064 31.64H163.064V30.64H162.064V31.64ZM162.064 71H161.064V72H162.064V71ZM172.089 71V31.64H170.089V71H172.089ZM171.089 32.64H180.305V30.64H171.089V32.64ZM181.305 31.64V24.056H179.305V31.64H181.305ZM180.305 23.056H171.089V25.056H180.305V23.056ZM172.089 24.056V9.368H170.089V24.056H172.089ZM171.089 8.368H162.064V10.368H171.089V8.368ZM161.064 9.368V24.056H163.064V9.368H161.064ZM162.064 23.056H152.848V25.056H162.064V23.056ZM151.848 24.056V31.64H153.848V24.056H151.848ZM152.848 32.64H162.064V30.64H152.848V32.64ZM161.064 31.64V71H163.064V31.64H161.064ZM162.064 72H171.089V70H162.064V72ZM188.403 71H187.403V72H188.403V71ZM197.427 71V72H198.427V71H197.427ZM197.427 24.056H198.427V23.056H197.427V24.056ZM188.403 24.056V23.056H187.403V24.056H188.403ZM192.819 13.92C196.635 13.92 199.771 10.7843 199.771 6.96799H197.771C197.771 9.67971 195.531 11.92 192.819 11.92V13.92ZM199.771 6.96799C199.771 3.04521 196.625 0.0159969 192.819 0.0159969V2.016C195.541 2.016 197.771 4.17079 197.771 6.96799H199.771ZM192.819 0.0159969C189.013 0.0159969 185.867 3.04521 185.867 6.96799H187.867C187.867 4.17079 190.097 2.016 192.819 2.016V0.0159969ZM185.867 6.96799C185.867 10.7843 189.003 13.92 192.819 13.92V11.92C190.107 11.92 187.867 9.67971 187.867 6.96799H185.867ZM188.403 72H197.427V70H188.403V72ZM198.427 71V24.056H196.427V71H198.427ZM197.427 23.056H188.403V25.056H197.427V23.056ZM187.403 24.056V71H189.403V24.056H187.403ZM219.552 71V72H220.552V71H219.552ZM244.224 71H243.224V72H244.224V71ZM253.248 71V72H254.248V71H253.248ZM219.648 31.256L218.657 31.3882L219.057 34.3887L220.523 31.7403L219.648 31.256ZM218.688 24.056L219.679 23.9238L219.564 23.056H218.688V24.056ZM210.528 24.056V23.056H209.528V24.056H210.528ZM210.528 71H209.528V72H210.528V71ZM220.552 71V46.136H218.552V71H220.552ZM220.552 46.136C220.552 41.7461 221.73 38.2082 223.814 35.7839C225.882 33.3784 228.928 31.968 232.896 31.968V29.968C228.416 29.968 224.79 31.5816 222.298 34.4801C219.822 37.3598 218.552 41.4059 218.552 46.136H220.552ZM232.896 31.968C236.17 31.968 238.694 32.873 240.415 34.7515C242.15 36.646 243.224 39.6971 243.224 44.312H245.224C245.224 39.4229 244.09 35.802 241.889 33.4005C239.674 30.983 236.534 29.968 232.896 29.968V31.968ZM243.224 44.312V71H245.224V44.312H243.224ZM244.224 72H253.248V70H244.224V72ZM254.248 71V42.296H252.248V71H254.248ZM254.248 42.296C254.248 36.1555 252.8 30.9886 249.621 27.3464C246.422 23.6806 241.603 21.712 235.2 21.712V23.712C241.181 23.712 245.386 25.5353 248.115 28.6616C250.864 31.8114 252.248 36.4365 252.248 42.296H254.248ZM235.2 21.712C228.266 21.712 221.95 25.0329 218.773 30.7717L220.523 31.7403C223.298 26.7271 228.886 23.712 235.2 23.712V21.712ZM220.639 31.1238L219.679 23.9238L217.697 24.1882L218.657 31.3882L220.639 31.1238ZM218.688 23.056H210.528V25.056H218.688V23.056ZM209.528 24.056V71H211.528V24.056H209.528ZM210.528 72H219.552V70H210.528V72ZM301.171 61.016H302.171V57.192L300.299 60.5265L301.171 61.016ZM272.371 74.168L273.357 74.0036L273.218 73.168H272.371V74.168ZM263.347 74.168V73.168H262.191L262.357 74.3117L263.347 74.168ZM310.099 24.056H311.099V23.056H310.099V24.056ZM302.035 24.056V23.056H301.116L301.038 23.972L302.035 24.056ZM301.363 32.024L300.471 32.477L302.064 35.6108L302.359 32.108L301.363 32.024ZM261.771 46.328C261.771 53.1153 263.952 59.2198 267.919 63.6399C271.895 68.0708 277.617 70.752 284.563 70.752V68.752C278.164 68.752 272.991 66.2972 269.407 62.3041C265.814 58.3002 263.771 52.6927 263.771 46.328H261.771ZM284.563 70.752C292.245 70.752 298.762 67.3502 302.043 61.5055L300.299 60.5265C297.436 65.6258 291.664 68.752 284.563 68.752V70.752ZM300.171 61.016V70.424H302.171V61.016H300.171ZM300.171 70.424C300.171 74.6692 298.806 78.072 296.478 80.4106C294.151 82.7488 290.773 84.112 286.579 84.112V86.112C291.217 86.112 295.135 84.5952 297.896 81.8214C300.656 79.048 302.171 75.1068 302.171 70.424H300.171ZM286.579 84.112C282.811 84.112 279.777 83.1481 277.566 81.4405C275.364 79.74 273.897 77.2401 273.357 74.0036L271.384 74.3324C271.997 78.0079 273.697 80.98 276.344 83.0235C278.98 85.0599 282.475 86.112 286.579 86.112V84.112ZM272.371 73.168H263.347V75.168H272.371V73.168ZM262.357 74.3117C263.253 80.4804 265.977 85.492 270.187 88.9562C274.393 92.4166 280.006 94.272 286.579 94.272V92.272C280.384 92.272 275.245 90.5274 271.458 87.4118C267.676 84.3 265.169 79.7597 264.336 74.0243L262.357 74.3117ZM286.579 94.272C294.002 94.272 300.157 91.8418 304.456 87.4168C308.752 82.9949 311.099 76.6786 311.099 69.08H309.099C309.099 76.2654 306.886 82.0451 303.021 86.0232C299.16 89.9982 293.555 92.272 286.579 92.272V94.272ZM311.099 69.08V24.056H309.099V69.08H311.099ZM310.099 23.056H302.035V25.056H310.099V23.056ZM301.038 23.972L300.366 31.94L302.359 32.108L303.031 24.14L301.038 23.972ZM302.254 31.5709C299.087 25.3389 292.859 21.712 284.947 21.712V23.712C292.202 23.712 297.686 26.9971 300.471 32.477L302.254 31.5709ZM284.947 21.712C277.861 21.712 272.043 24.4144 268.005 28.8814C263.976 33.3379 261.771 39.4916 261.771 46.328H263.771C263.771 39.9164 265.837 34.2621 269.489 30.2226C273.131 26.1936 278.401 23.712 284.947 23.712V21.712ZM272.795 46.136C272.795 42.0185 274.075 38.3777 276.361 35.7808C278.635 33.1978 281.957 31.584 286.195 31.584V29.584C281.408 29.584 277.53 31.4262 274.86 34.4592C272.202 37.4783 270.795 41.6135 270.795 46.136H272.795ZM286.195 31.584C290.552 31.584 293.919 33.1192 296.205 35.6467C298.502 38.1867 299.787 41.8183 299.787 46.136H301.787C301.787 41.4297 300.383 37.2853 297.688 34.3053C294.982 31.3128 291.053 29.584 286.195 29.584V31.584ZM299.787 46.136C299.787 50.5457 298.456 54.2255 296.123 56.7912C293.799 59.3461 290.406 60.88 286.099 60.88V62.88C290.911 62.88 294.862 61.1499 297.603 58.1368C300.333 55.1345 301.787 50.9423 301.787 46.136H299.787ZM286.099 60.88C281.963 60.88 278.665 59.2708 276.388 56.6624C274.1 54.0406 272.795 50.3502 272.795 46.136H270.795C270.795 50.7538 272.226 54.9354 274.881 57.9776C277.549 61.0332 281.402 62.88 286.099 62.88V60.88Z" fill="#FAFAFA"/>
</svg>
