<svg width="161" height="138" viewBox="0 0 161 138" fill="none" xmlns="http://www.w3.org/2000/svg">
<path d="M161 7.50316C161 5.67727 158.929 2.04638 157.291 1.09147C156.858 0.839176 156.354 1.04488 155.985 1.38361L136.616 19.1647C136.232 19.517 136.001 20.0051 135.972 20.5252L129.444 136.009C129.392 136.927 129.979 137.775 130.898 137.801C133.61 137.88 137.169 136.654 138.653 135.927C138.748 135.881 138.836 135.826 138.921 135.764L160.183 120.171C160.697 119.794 161 119.195 161 118.558V7.50316Z" fill="#BFBFBF"/>
<path d="M26.4423 1.41187L4.59092 17.8969C4.12827 18.246 3.7589 18.7038 3.51556 19.2297C2.41322 21.6124 4.21138 24.3202 6.8351 24.2285L133.718 19.7946C135.212 19.7424 136.649 19.2136 137.821 18.2856L157.114 3C158.224 2.14286 157.669 0 154.893 0H30.6581C29.1368 0 27.6568 0.495632 26.4423 1.41187Z" fill="#D9D9D9"/>
<path d="M0 26C0 21.5817 3.58172 18 8 18H136.683C137.235 18 137.683 18.4477 137.683 19V130C137.683 134.418 134.101 138 129.683 138H0.999999C0.447714 138 0 137.552 0 137V26Z" fill="#CCCCCC"/>
<circle cx="57" cy="78" r="43" fill="#4A5863"/>
<circle cx="56.9998" cy="77.9998" r="16.3103" fill="#D9E1E8"/>
<circle cx="56.9999" cy="77.9999" r="24.7069" stroke="#D9E1E8"/>
<circle cx="56.9999" cy="77.9999" r="33.6034" stroke="#D9E1E8"/>
<path d="M67.8121 69.8617L66.678 68.7713C66.257 68.3664 66.2711 67.6884 66.7085 67.3014L88.1379 48.3447L69.2559 69.8015C68.8796 70.2291 68.2227 70.2565 67.8121 69.8617Z" fill="#D9E1E8"/>
<path d="M46.1879 69.8617L47.322 68.7713C47.743 68.3664 47.7289 67.6884 47.2915 67.3014L25.8621 48.3447L44.7441 69.8015C45.1204 70.2291 45.7773 70.2565 46.1879 69.8617Z" fill="#D9E1E8"/>
<path d="M47.6708 87.6207L48.8049 88.7112C49.2259 89.116 49.2118 89.794 48.7744 90.181L27.345 109.138L46.227 87.6809C46.6033 87.2533 47.2602 87.2259 47.6708 87.6207Z" fill="#D9E1E8"/>
<path d="M67.8121 87.6207L66.678 88.7112C66.257 89.116 66.2711 89.794 66.7085 90.181L88.1379 109.138L69.2559 87.6809C68.8796 87.2533 68.2227 87.2259 67.8121 87.6207Z" fill="#D9E1E8"/>
</svg>
