<svg width="164" height="153" viewBox="0 0 164 153" fill="none" xmlns="http://www.w3.org/2000/svg">
<path d="M163.688 139.834L152.074 150.838C151.962 150.945 151.826 151.024 151.679 151.069L148.312 152.099C147.664 152.297 147.01 151.806 147.02 151.128L148.994 13.8711C148.998 13.6087 149.105 13.3582 149.292 13.1738L160.321 2.28827C160.508 2.10356 160.761 1.99297 161.023 2.0226C162.75 2.21848 164 3.70752 164 7.2532V139.108C164 139.383 163.887 139.645 163.688 139.834Z" fill="#BFBFBF"/>
<path d="M148.216 14.7065L159.708 3.19602C159.895 3.00853 160 2.75443 160 2.48949V1.96109C160 1.41141 159.556 0.96478 159.007 0.961109L15.4836 0.00271606C15.2229 0.000974655 14.9717 0.101146 14.7838 0.281876L3.30688 11.3178C3.11081 11.5064 2.9921 11.768 3.02567 12.0379C3.23943 13.757 4.81015 15 8.53526 15H147.508C147.774 15 148.028 14.8944 148.216 14.7065Z" fill="#DBDBDB"/>
<rect y="11" width="151" height="142" rx="6" fill="#CCCCCC"/>
<rect x="10" y="99" width="29" height="5" fill="#4A5863"/>
<rect x="10" y="110" width="29" height="5" fill="#4A5863"/>
<rect x="10" y="121" width="29" height="5" fill="#4A5863"/>
<rect x="10" y="132" width="29" height="5" fill="#4A5863"/>
<rect x="44" y="99" width="29" height="5" fill="#4A5863"/>
<rect x="44" y="110" width="29" height="5" fill="#4A5863"/>
<rect x="44" y="121" width="29" height="5" fill="#4A5863"/>
<rect x="44" y="132" width="29" height="5" fill="#4A5863"/>
<rect x="78" y="99" width="29" height="5" fill="#4A5863"/>
<rect x="78" y="110" width="29" height="5" fill="#4A5863"/>
<rect x="78" y="121" width="29" height="5" fill="#4A5863"/>
<rect x="78" y="132" width="29" height="5" fill="#4A5863"/>
<rect x="112" y="99" width="29" height="5" fill="#4A5863"/>
<rect x="112" y="110" width="29" height="5" fill="#4A5863"/>
<rect x="112" y="121" width="29" height="5" fill="#4A5863"/>
<rect x="112" y="132" width="29" height="5" fill="#4A5863"/>
<rect x="12" y="24" width="58" height="39" rx="1" fill="#4A5863"/>
<path d="M63.716 27H17.284C16.4122 27 15.9579 28.0377 16.5492 28.6783L20.703 33.1783C20.8923 33.3834 21.1587 33.5 21.4378 33.5H59.5622C59.8413 33.5 60.1077 33.3834 60.297 33.1783L64.4508 28.6783C65.0421 28.0377 64.5878 27 63.716 27Z" fill="#579AC1"/>
<path d="M63.716 35.5H17.284C16.4122 35.5 15.9579 36.5377 16.5492 37.1783L20.703 41.6783C20.8923 41.8834 21.1587 42 21.4378 42H59.5622C59.8413 42 60.1077 41.8834 60.297 41.6783L64.4508 37.1783C65.0421 36.5377 64.5878 35.5 63.716 35.5Z" fill="#579AC1"/>
<path d="M63.716 44H17.284C16.4122 44 15.9579 45.0377 16.5492 45.6783L20.703 50.1783C20.8923 50.3834 21.1587 50.5 21.4378 50.5H59.5622C59.8413 50.5 60.1077 50.3834 60.297 50.1783L64.4508 45.6783C65.0421 45.0377 64.5878 44 63.716 44Z" fill="#579AC1"/>
<path d="M63.716 52.5H17.284C16.4122 52.5 15.9579 53.5377 16.5492 54.1783L20.703 58.6783C20.8923 58.8834 21.1587 59 21.4378 59H59.5622C59.8413 59 60.1077 58.8834 60.297 58.6783L64.4508 54.1783C65.0421 53.5377 64.5878 52.5 63.716 52.5Z" fill="#579AC1"/>
<rect x="82" y="24" width="58" height="39" rx="1" fill="#4A5863"/>
<path d="M133.716 27H87.284C86.4122 27 85.9579 28.0377 86.5492 28.6783L90.703 33.1783C90.8923 33.3834 91.1587 33.5 91.4378 33.5H129.562C129.841 33.5 130.108 33.3834 130.297 33.1783L134.451 28.6783C135.042 28.0377 134.588 27 133.716 27Z" fill="#579AC1"/>
<path d="M133.716 35.5H87.284C86.4122 35.5 85.9579 36.5377 86.5492 37.1783L90.703 41.6783C90.8923 41.8834 91.1587 42 91.4378 42H129.562C129.841 42 130.108 41.8834 130.297 41.6783L134.451 37.1783C135.042 36.5377 134.588 35.5 133.716 35.5Z" fill="#579AC1"/>
<path d="M133.716 44H87.284C86.4122 44 85.9579 45.0377 86.5492 45.6783L90.703 50.1783C90.8923 50.3834 91.1587 50.5 91.4378 50.5H129.562C129.841 50.5 130.108 50.3834 130.297 50.1783L134.451 45.6783C135.042 45.0377 134.588 44 133.716 44Z" fill="#579AC1"/>
<path d="M133.716 52.5H87.284C86.4122 52.5 85.9579 53.5377 86.5492 54.1783L90.703 58.6783C90.8923 58.8834 91.1587 59 91.4378 59H129.562C129.841 59 130.108 58.8834 130.297 58.6783L134.451 54.1783C135.042 53.5377 134.588 52.5 133.716 52.5Z" fill="#579AC1"/>
</svg>
