<svg width="202" height="113" viewBox="0 0 202 113" fill="none" xmlns="http://www.w3.org/2000/svg">
<path d="M175.5 39L136.5 0V54.5L175.5 71V39Z" fill="#BFBFBF"/>
<path d="M27 0V48H136.5V0H27Z" fill="#CCCCCC"/>
<path d="M4 45H151.5V61.5H2C1 61.5 0 60 0 57.5V49C0 47 1.5 45 4 45Z" fill="#DBDBDB"/>
<path d="M201.5 93.4999C202.5 94.4998 201.5 106 201.5 106L151.5 60.4999V44.9999C151.5 42.4999 200.5 92.5 201.5 93.4999Z" fill="#CBCBCB"/>
<path d="M84.5005 112.5C40.5005 112.5 56.5005 118 25.5005 88.4999L6.00052 68.9999C1.50012 63 -6.49967 57.0001 10.9996 57.0001L132 57.0001C153.5 56.9999 150.001 55.0003 159.001 62.9999L201.001 103.5C202 105.5 202.5 112.5 190.501 112.5H84.5005Z" fill="#BFBFBF"/>
<path d="M84.5261 71H43.2606C42.3924 71 41.9366 72.0303 42.5206 72.6727L45.7024 76.1727C45.892 76.3811 46.1606 76.5 46.4424 76.5H87.3898C88.2334 76.5 88.6979 75.5197 88.1637 74.8668L85.3001 71.3668C85.1101 71.1346 84.8261 71 84.5261 71Z" fill="#4A5863"/>
<path d="M94.5261 82.5H53.2606C52.3924 82.5 51.9366 83.5303 52.5206 84.1727L55.7024 87.6727C55.892 87.8811 56.1606 88 56.4424 88H97.3898C98.2334 88 98.6979 87.0197 98.1637 86.3668L95.3001 82.8668C95.1101 82.6346 94.8261 82.5 94.5261 82.5Z" fill="#4A5863"/>
<path d="M105.526 94.5H64.2606C63.3924 94.5 62.9366 95.5303 63.5206 96.1727L66.7024 99.6727C66.892 99.8811 67.1606 100 67.4424 100H108.39C109.233 100 109.698 99.0197 109.164 98.3668L106.3 94.8668C106.11 94.6346 105.826 94.5 105.526 94.5Z" fill="#4A5863"/>
<path d="M135.526 71H94.2606C93.3924 71 92.9366 72.0303 93.5206 72.6727L96.7024 76.1727C96.892 76.3811 97.1606 76.5 97.4424 76.5H138.39C139.233 76.5 139.698 75.5197 139.164 74.8668L136.3 71.3668C136.11 71.1346 135.826 71 135.526 71Z" fill="#4A5863"/>
<path d="M145.526 82.5H104.261C103.392 82.5 102.937 83.5303 103.521 84.1727L106.702 87.6727C106.892 87.8811 107.161 88 107.442 88H148.39C149.233 88 149.698 87.0197 149.164 86.3668L146.3 82.8668C146.11 82.6346 145.826 82.5 145.526 82.5Z" fill="#4A5863"/>
<path d="M156.526 94.5H115.261C114.392 94.5 113.937 95.5303 114.521 96.1727L117.702 99.6727C117.892 99.8811 118.161 100 118.442 100H159.39C160.233 100 160.698 99.0197 160.164 98.3668L157.3 94.8668C157.11 94.6346 156.826 94.5 156.526 94.5Z" fill="#4A5863"/>
</svg>
