<svg width="205" height="100" viewBox="0 0 205 100" fill="none" xmlns="http://www.w3.org/2000/svg">
<path d="M205 7.5C205 6 204 3.5 202.5 3.5L176 26V99.5C181.046 99.4804 183.573 98.4789 187.5 94.5L205 77V7.5Z" fill="#BFBFBF"/>
<path d="M22.6785 0L4 18.9302V22H183.717L203 4C203.5 4 203.5 1.5 199.872 0H22.6785Z" fill="#D9D9D9"/>
<path d="M0 26C0 21.5817 3.58172 18 8 18H185C186.105 18 187 18.8954 187 20V92C187 96.4183 183.418 100 179 100H8C3.58172 100 0 96.4183 0 92V26Z" fill="#CCCCCC"/>
<rect x="15" y="70" width="157" height="27" rx="2" fill="#4E5B5D"/>
<path d="M23.7057 73.466L18.9688 80.966C18.5483 81.6319 19.0268 82.5 19.8143 82.5H162.949C163.292 82.5 163.611 82.3241 163.794 82.034L168.531 74.534C168.952 73.8681 168.473 73 167.686 73H24.5512C24.2081 73 23.8889 73.1759 23.7057 73.466Z" fill="#5D9AC5"/>
<path d="M23.7057 85.466L18.9688 92.966C18.5483 93.6319 19.0268 94.5 19.8143 94.5H162.949C163.292 94.5 163.611 94.3241 163.794 94.034L168.531 86.534C168.952 85.8681 168.473 85 167.686 85H24.5512C24.2081 85 23.8889 85.1759 23.7057 85.466Z" fill="#5D9AC5"/>
<rect x="13" y="30" width="162" height="31" rx="1" fill="#CCCCCC" stroke="#BFBFBF" stroke-width="2"/>
</svg>
