<svg width="131" height="187" viewBox="0 0 131 187" fill="none" xmlns="http://www.w3.org/2000/svg">
<path d="M130.7 158.794L105.362 183.654C104.915 184.093 104.178 184.017 103.83 183.495L103.668 183.252C103.558 183.088 103.5 182.895 103.5 182.697L103.5 27.9156C103.5 27.6496 103.606 27.3945 103.795 27.2068L127.32 3.79123C127.508 3.60472 127.762 3.49289 128.025 3.52287C129.751 3.71988 131 5.2092 131 8.7532V158.08C131 158.349 130.892 158.606 130.7 158.794Z" fill="#BFBFBF"/>
<path d="M104.782 27.7304C107.378 25.2479 127.033 6.43392 127.5 5.5C128 4.5 128.5 4.75 128.5 3.5C128.5 2.67769 128.067 1.85538 127.771 1.38894C127.61 1.13548 127.326 0.998232 127.026 0.995184L29.4087 0.00414848C29.1467 0.00148964 28.8942 0.101711 28.7054 0.283266L3.30689 24.7049C3.11081 24.8934 2.99778 25.156 3.00665 25.4279C3.10638 28.4852 4.33889 28.5 7.40705 28.5L104.102 28.002C104.358 28.0007 104.597 27.9071 104.782 27.7304Z" fill="#DBDBDB"/>
<rect y="24.5" width="107" height="162" rx="6" fill="#CCCCCC"/>
<rect x="19" y="121" width="32.0526" height="5.52632" fill="#4A5863"/>
<rect x="19" y="133.158" width="32.0526" height="5.52632" fill="#4A5863"/>
<rect x="19" y="145.316" width="32.0526" height="5.52632" fill="#4A5863"/>
<rect x="19" y="157.474" width="32.0526" height="5.52632" fill="#4A5863"/>
<rect x="56.5791" y="121" width="32.0526" height="5.52632" fill="#4A5863"/>
<rect x="56.5791" y="133.158" width="32.0526" height="5.52632" fill="#4A5863"/>
<rect x="56.5791" y="145.316" width="32.0526" height="5.52632" fill="#4A5863"/>
<rect x="56.5791" y="157.474" width="32.0526" height="5.52632" fill="#4A5863"/>
<rect x="18" y="46" width="71.3846" height="48" rx="1" fill="#4A5863"/>
<path d="M82.1776 49.6924H23.9764C23.1046 49.6924 22.6503 50.7301 23.2416 51.3707L28.78 57.3707C28.9693 57.5757 29.2357 57.6924 29.5148 57.6924H76.6392C76.9183 57.6924 77.1847 57.5757 77.374 57.3707L82.9124 51.3707C83.5037 50.7301 83.0494 49.6924 82.1776 49.6924Z" fill="#579AC1"/>
<path d="M82.1776 60.1538H23.9764C23.1046 60.1538 22.6503 61.1915 23.2416 61.8321L28.78 67.8321C28.9693 68.0372 29.2357 68.1538 29.5148 68.1538H76.6392C76.9183 68.1538 77.1847 68.0372 77.374 67.8321L82.9124 61.8321C83.5037 61.1915 83.0494 60.1538 82.1776 60.1538Z" fill="#579AC1"/>
<path d="M82.1776 70.6152H23.9764C23.1046 70.6152 22.6503 71.6529 23.2416 72.2935L28.78 78.2935C28.9693 78.4986 29.2357 78.6152 29.5148 78.6152H76.6392C76.9183 78.6152 77.1847 78.4986 77.374 78.2935L82.9124 72.2935C83.5037 71.6529 83.0494 70.6152 82.1776 70.6152Z" fill="#579AC1"/>
<path d="M82.1776 81.0771H23.9764C23.1046 81.0771 22.6503 82.1149 23.2416 82.7554L28.78 88.7554C28.9693 88.9605 29.2357 89.0771 29.5148 89.0771H76.6392C76.9183 89.0771 77.1847 88.9605 77.374 88.7554L82.9124 82.7554C83.5037 82.1149 83.0494 81.0771 82.1776 81.0771Z" fill="#579AC1"/>
</svg>
