<svg width="145" height="161" viewBox="0 0 145 161" fill="none" xmlns="http://www.w3.org/2000/svg">
<path d="M145 8.75393C145 6.6989 143.264 2.68407 141.817 1.40303C141.375 1.01161 140.781 1.2609 140.401 1.7128L122.938 22.4795C122.654 22.817 122.49 23.2389 122.47 23.6795L116.562 159.083C116.525 159.932 117.036 160.736 117.886 160.768C120.318 160.861 123.507 159.443 124.856 158.593C124.953 158.532 125.042 158.46 125.125 158.381L144.377 140.091C144.775 139.714 145 139.19 145 138.641V8.75393Z" fill="#BFBFBF"/>
<path d="M23.4599 1.99369L4.21353 20.8027C3.74402 21.2615 3.38524 21.8213 3.16444 22.4396C2.13154 25.3317 4.36086 28.3479 7.42875 28.209L119.735 23.1252C121.511 23.0448 123.191 22.2911 124.432 21.0174L141.5 3.5C142.5 2.5 142 0 139.5 0H28.3525C26.5238 0 24.7678 0.715585 23.4599 1.99369Z" fill="#D9D9D9"/>
<path d="M0 29C0 24.5817 3.58172 21 8 21H123C123.552 21 124 21.4477 124 22V153C124 157.418 120.418 161 116 161H0.999999C0.447714 161 0 160.552 0 160V29Z" fill="#CCCCCC"/>
<circle cx="45" cy="59" r="29" fill="#4A5863"/>
<circle cx="45" cy="59" r="11" fill="#D9E1E8"/>
<circle cx="45" cy="59" r="16.5" stroke="#D9E1E8"/>
<circle cx="45" cy="59" r="22.5" stroke="#D9E1E8"/>
<path d="M52.0466 53.2756L51.7815 53.0207C51.3605 52.6159 51.3746 51.9379 51.8121 51.5509L66 39L53.4904 53.2154C53.1142 53.643 52.4572 53.6704 52.0466 53.2756Z" fill="#D9E1E8"/>
<path d="M37.9534 53.2756L38.2185 53.0207C38.6395 52.6159 38.6254 51.9379 38.1879 51.5509L24 39L36.5096 53.2154C36.8858 53.643 37.5428 53.6704 37.9534 53.2756Z" fill="#D9E1E8"/>
<path d="M38.9534 65.7244L39.2185 65.9793C39.6395 66.3841 39.6254 67.0621 39.1879 67.4491L25 80L37.5096 65.7846C37.8858 65.357 38.5428 65.3296 38.9534 65.7244Z" fill="#D9E1E8"/>
<path d="M52.0466 65.7244L51.7815 65.9793C51.3605 66.3841 51.3746 67.0621 51.8121 67.4491L66 80L53.4904 65.7846C53.1142 65.357 52.4572 65.3296 52.0466 65.7244Z" fill="#D9E1E8"/>
<circle cx="45" cy="124" r="29" fill="#4A5863"/>
<circle cx="45" cy="124" r="11" fill="#D9E1E8"/>
<circle cx="45" cy="124" r="16.5" stroke="#D9E1E8"/>
<circle cx="45" cy="124" r="22.5" stroke="#D9E1E8"/>
<path d="M52.0466 118.276L51.7815 118.021C51.3605 117.616 51.3746 116.938 51.8121 116.551L66 104L53.4904 118.215C53.1142 118.643 52.4572 118.67 52.0466 118.276Z" fill="#D9E1E8"/>
<path d="M37.9534 118.276L38.2185 118.021C38.6395 117.616 38.6254 116.938 38.1879 116.551L24 104L36.5096 118.215C36.8858 118.643 37.5428 118.67 37.9534 118.276Z" fill="#D9E1E8"/>
<path d="M38.9534 130.724L39.2185 130.979C39.6395 131.384 39.6254 132.062 39.1879 132.449L25 145L37.5096 130.785C37.8858 130.357 38.5428 130.33 38.9534 130.724Z" fill="#D9E1E8"/>
<path d="M52.0466 130.724L51.7815 130.979C51.3605 131.384 51.3746 132.062 51.8121 132.449L66 145L53.4904 130.785C53.1142 130.357 52.4572 130.33 52.0466 130.724Z" fill="#D9E1E8"/>
</svg>
