<svg width="164" height="153" viewBox="0 0 164 153" fill="none" xmlns="http://www.w3.org/2000/svg">
<path d="M163.688 139.834L152.074 150.838C151.962 150.945 151.826 151.024 151.679 151.069L148.312 152.099C147.664 152.297 147.01 151.806 147.02 151.128L148.994 13.8711C148.998 13.6087 149.105 13.3582 149.292 13.1738L160.321 2.28827C160.508 2.10356 160.761 1.99297 161.023 2.0226C162.75 2.21848 164 3.70752 164 7.2532V139.108C164 139.383 163.887 139.645 163.688 139.834Z" fill="#BFBFBF"/>
<path d="M148.216 14.7065L159.708 3.19602C159.895 3.00853 160 2.75443 160 2.48949V1.96109C160 1.41141 159.556 0.96478 159.007 0.961109L15.4836 0.00271606C15.2229 0.000974655 14.9717 0.101146 14.7838 0.281876L3.30688 11.3178C3.11081 11.5064 2.9921 11.768 3.02567 12.0379C3.23943 13.757 4.81015 15 8.53526 15H147.508C147.774 15 148.028 14.8944 148.216 14.7065Z" fill="#DBDBDB"/>
<rect y="11" width="151" height="142" rx="6" fill="#CCCCCC"/>
<path d="M23 27H129V138H23V27Z" fill="#4A5863"/>
<rect x="36" y="35" width="4" height="99" rx="2" fill="#CCCCCC"/>
<rect x="51" y="35" width="4" height="99" rx="2" fill="#CCCCCC"/>
<rect x="66" y="35" width="4" height="99" rx="2" fill="#CCCCCC"/>
<rect x="81" y="35" width="4" height="99" rx="2" fill="#CCCCCC"/>
<rect x="96" y="35" width="4" height="99" rx="2" fill="#CCCCCC"/>
<rect x="111" y="35" width="4" height="99" rx="2" fill="#CCCCCC"/>
<rect x="15" y="24" width="108.107" height="9" fill="#579AC1"/>
<rect x="15" y="132" width="108.107" height="9" fill="#579AC1"/>
<rect x="28.8848" y="45" width="94.2213" height="9" fill="#579AC1"/>
<rect x="28.8848" y="67" width="94.2213" height="9" fill="#579AC1"/>
<rect x="28.8848" y="88" width="94.2213" height="9" fill="#579AC1"/>
<rect x="28.8848" y="110" width="94.2213" height="9" fill="#579AC1"/>
<path d="M123.106 33V24C129.553 24 136 33 136 38V39.5C136 45 131.041 54 123.106 54V45C130.049 42.5 130.049 36 123.106 33Z" fill="#579AC1"/>
<path d="M123.106 76V67C129.553 67 136 76 136 81V82.5C136 88 131.041 97 123.106 97V88C130.049 85.5 130.049 79 123.106 76Z" fill="#579AC1"/>
<path d="M123.106 119V110C129.553 110 136 119 136 124V125.5C136 131 131.041 141 123.106 141V132C130.049 129.5 130.049 122 123.106 119Z" fill="#579AC1"/>
<path d="M28.8848 54V45C22.438 45 15.9913 54.3 15.9913 59.4667V61.0167C15.9913 66.7 20.9503 76 28.8848 76V67C21.9421 64.4167 21.9421 57.1 28.8848 54Z" fill="#579AC1"/>
<path d="M28.8848 97V88C22.438 88 15.9913 97.3 15.9913 102.467V104.017C15.9913 109.7 20.9503 119 28.8848 119V110C21.9421 107.417 21.9421 100.1 28.8848 97Z" fill="#579AC1"/>
</svg>
